AtkinsonHyperlegibleMono-SemiBoldItalic.sfdir
StartChar: exclam
Encoding: 33 33 254
Width: 632
GlyphClass: 1
Flags: W
LayerCount: 2
Fore
SplineSet
302 496 m 1,0,-1
 339 668 l 1,1,-1
 471 668 l 1,2,-1
 435 496 l 1,3,-1
 352 222 l 1,4,-1
 269 222 l 1,5,-1
 302 496 l 1,0,-1
219.5 12.5 m 128,-1,7
 195 37 195 37 195 71 c 0,8,9
 195 106 195 106 219.5 130.5 c 128,-1,10
 244 155 244 155 279 155 c 0,11,12
 313 155 313 155 337.5 130.5 c 128,-1,13
 362 106 362 106 362 71 c 0,14,15
 362 37 362 37 337.5 12.5 c 128,-1,16
 313 -12 313 -12 279 -12 c 0,17,6
 244 -12 244 -12 219.5 12.5 c 128,-1,7
EndSplineSet
EndChar
StartChar: quotedbl
Encoding: 34 34 284
Width: 632
GlyphClass: 1
Flags: W
LayerCount: 2
Fore
SplineSet
240 668 m 1,0,-1
 364 668 l 1,1,-1
 297 424 l 1,2,-1
 204 424 l 1,3,-1
 240 668 l 1,0,-1
446 668 m 1,4,-1
 570 668 l 1,5,-1
 503 424 l 1,6,-1
 411 424 l 1,7,-1
 446 668 l 1,4,-1
EndSplineSet
EndChar
StartChar: dollar
Encoding: 36 36 304
Width: 632
GlyphClass: 1
Flags: W
LayerCount: 2
Fore
SplineSet
108 47.5 m 128,-1,1
 57 88 57 88 40 156 c 1,2,-1
 157 196 l 1,3,4
 163 159 163 159 188 134 c 128,-1,5
 213 109 213 109 251 98 c 1,6,-1
 294 301 l 1,7,-1
 263 311 l 1,8,9
 115 364 115 364 115 475 c 0,10,11
 115 531 115 531 148.5 577.5 c 128,-1,12
 182 624 182 624 241 651.5 c 128,-1,13
 300 679 300 679 374 680 c 1,14,-1
 391 758 l 1,15,-1
 452 758 l 1,16,-1
 434 675 l 1,17,18
 497 664 497 664 545 629.5 c 128,-1,19
 593 595 593 595 612 540 c 1,20,-1
 497 500 l 1,21,22
 488 527 488 527 465 545 c 128,-1,23
 442 563 442 563 412 571 c 1,24,-1
 373 390 l 1,25,-1
 396 382 l 2,26,27
 485 352 485 352 528 312 c 128,-1,28
 571 272 571 272 571 208 c 0,29,30
 571 147 571 147 534.5 96.5 c 128,-1,31
 498 46 498 46 433.5 17 c 128,-1,32
 369 -12 369 -12 289 -12 c 1,33,-1
 272 -90 l 1,34,-1
 211 -90 l 1,35,-1
 229 -6 l 1,36,0
 159 7 159 7 108 47.5 c 128,-1,1
406.5 118.5 m 128,-1,38
 443 148 443 148 443 193 c 0,39,40
 443 222 443 222 421.5 241.5 c 128,-1,41
 400 261 400 261 361 276 c 2,42,-1
 350 281 l 1,43,-1
 310 89 l 1,44,37
 370 89 370 89 406.5 118.5 c 128,-1,38
272.5 552 m 128,-1,46
 242 528 242 528 242 488 c 0,47,48
 242 439 242 439 305 414 c 2,49,-1
 317 409 l 1,50,-1
 353 579 l 1,51,45
 303 576 303 576 272.5 552 c 128,-1,46
EndSplineSet
EndChar
StartChar: percent
Encoding: 37 37 332
Width: 632
GlyphClass: 1
Flags: W
LayerCount: 2
Fore
SplineSet
140 410.5 m 128,-1,1
 107 430 107 430 87.5 463 c 128,-1,2
 68 496 68 496 68 535 c 0,3,4
 68 575 68 575 87.5 608 c 128,-1,5
 107 641 107 641 140 660.5 c 128,-1,6
 173 680 173 680 213 680 c 0,7,8
 252 680 252 680 285 660.5 c 128,-1,9
 318 641 318 641 337.5 608 c 128,-1,10
 357 575 357 575 357 535 c 0,11,12
 357 496 357 496 337.5 463 c 128,-1,13
 318 430 318 430 285 410.5 c 128,-1,14
 252 391 252 391 213 391 c 0,15,0
 173 391 173 391 140 410.5 c 128,-1,1
261 485.5 m 128,-1,17
 281 506 281 506 281 535 c 256,18,19
 281 564 281 564 261 585 c 128,-1,20
 241 606 241 606 213 606 c 256,21,22
 185 606 185 606 164.5 585 c 128,-1,23
 144 564 144 564 144 535 c 256,24,25
 144 506 144 506 164.5 485.5 c 128,-1,26
 185 465 185 465 213 465 c 256,27,16
 241 465 241 465 261 485.5 c 128,-1,17
530 668 m 1,28,-1
 634 668 l 1,29,-1
 138 0 l 1,30,-1
 34 0 l 1,31,-1
 530 668 l 1,28,-1
384 6.5 m 128,-1,33
 351 26 351 26 331.5 59 c 128,-1,34
 312 92 312 92 312 131 c 0,35,36
 312 171 312 171 331.5 204 c 128,-1,37
 351 237 351 237 384 256.5 c 128,-1,38
 417 276 417 276 457 276 c 0,39,40
 496 276 496 276 529 256.5 c 128,-1,41
 562 237 562 237 581.5 204 c 128,-1,42
 601 171 601 171 601 131 c 0,43,44
 601 92 601 92 581.5 59 c 128,-1,45
 562 26 562 26 529 6.5 c 128,-1,46
 496 -13 496 -13 457 -13 c 0,47,32
 417 -13 417 -13 384 6.5 c 128,-1,33
505 81.5 m 128,-1,49
 525 102 525 102 525 131 c 256,50,51
 525 160 525 160 505 181 c 128,-1,52
 485 202 485 202 457 202 c 256,53,54
 429 202 429 202 408.5 181 c 128,-1,55
 388 160 388 160 388 131 c 256,56,57
 388 102 388 102 408.5 81.5 c 128,-1,58
 429 61 429 61 457 61 c 256,59,48
 485 61 485 61 505 81.5 c 128,-1,49
EndSplineSet
EndChar
StartChar: ampersand
Encoding: 38 38 289
Width: 632
GlyphClass: 1
Flags: W
LayerCount: 2
Fore
SplineSet
112 10 m 128,-1,1
 64 32 64 32 37 72.5 c 128,-1,2
 10 113 10 113 10 166 c 0,3,4
 10 248 10 248 64.5 306.5 c 128,-1,5
 119 365 119 365 209 396 c 1,6,7
 174 455 174 455 174 514 c 0,8,9
 174 561 174 561 197 604 c 128,-1,10
 220 647 220 647 263.5 673 c 128,-1,11
 307 699 307 699 365 699 c 0,12,13
 411 699 411 699 446.5 679 c 128,-1,14
 482 659 482 659 501.5 626 c 128,-1,15
 521 593 521 593 521 554 c 0,16,17
 521 489 521 489 476 436.5 c 128,-1,18
 431 384 431 384 358 355 c 1,19,-1
 440 222 l 1,20,21
 479 274 479 274 502 359 c 1,22,-1
 607 359 l 1,23,24
 586 284 586 284 557 231.5 c 128,-1,25
 528 179 528 179 489 136 c 1,26,-1
 571 0 l 1,27,-1
 447 0 l 1,28,-1
 412 57 l 1,29,30
 364 19 364 19 317 3.5 c 128,-1,31
 270 -12 270 -12 221 -12 c 0,32,0
 160 -12 160 -12 112 10 c 128,-1,1
364 142 m 1,34,-1
 256 318 l 1,35,36
 199 300 199 300 164 265.5 c 128,-1,37
 129 231 129 231 129 181 c 0,38,39
 129 139 129 139 160.5 114.5 c 128,-1,40
 192 90 192 90 240 90 c 0,41,33
 307 90 307 90 364 142 c 1,34,-1
392 475 m 128,-1,43
 422 506 422 506 422 544 c 0,44,45
 422 571 422 571 403.5 588.5 c 128,-1,46
 385 606 385 606 357 606 c 0,47,48
 321 606 321 606 299 581 c 128,-1,49
 277 556 277 556 277 525 c 0,50,51
 277 486 277 486 318 426 c 1,52,42
 362 444 362 444 392 475 c 128,-1,43
EndSplineSet
EndChar
StartChar: parenleft
Encoding: 40 40 268
Width: 632
GlyphClass: 1
Flags: W
LayerCount: 2
Fore
SplineSet
179.5 7.5 m 128,-1,1
 150 96 150 96 150 187 c 0,2,3
 150 337 150 337 229.5 471 c 128,-1,4
 309 605 309 605 453 708 c 1,5,-1
 611 708 l 1,6,7
 461 608 461 608 366 474.5 c 128,-1,8
 271 341 271 341 271 191 c 0,9,10
 271 103 271 103 304.5 13 c 128,-1,11
 338 -77 338 -77 401 -162 c 1,12,-1
 267 -162 l 1,13,0
 209 -81 209 -81 179.5 7.5 c 128,-1,1
EndSplineSet
EndChar
StartChar: parenright
Encoding: 41 41 269
Width: 632
GlyphClass: 1
Flags: W
LayerCount: 2
Fore
SplineSet
277 71.5 m 128,-1,1
 372 205 372 205 372 355 c 0,2,3
 372 443 372 443 338.5 533 c 128,-1,4
 305 623 305 623 242 708 c 1,5,-1
 376 708 l 1,6,7
 434 627 434 627 463.5 538.5 c 128,-1,8
 493 450 493 450 493 359 c 0,9,10
 493 209 493 209 413.5 75 c 128,-1,11
 334 -59 334 -59 190 -162 c 1,12,-1
 32 -162 l 1,13,0
 182 -62 182 -62 277 71.5 c 128,-1,1
EndSplineSet
EndChar
StartChar: plus
Encoding: 43 43 311
Width: 632
GlyphClass: 1
Flags: W
LayerCount: 2
Fore
SplineSet
252 195 m 1,0,-1
 50 195 l 1,1,-1
 73 301 l 1,2,-1
 274 301 l 1,3,-1
 316 496 l 1,4,-1
 421 496 l 1,5,-1
 380 301 l 1,6,-1
 582 301 l 1,7,-1
 559 195 l 1,8,-1
 357 195 l 1,9,-1
 315 0 l 1,10,-1
 210 0 l 1,11,-1
 252 195 l 1,0,-1
EndSplineSet
EndChar
StartChar: comma
Encoding: 44 44 250
Width: 632
GlyphClass: 1
Flags: W
LayerCount: 2
Fore
SplineSet
204 29.5 m 128,-1,1
 189 53 189 53 189 80 c 0,2,3
 189 118 189 118 216.5 145 c 128,-1,4
 244 172 244 172 282 172 c 256,5,6
 320 172 320 172 346 146.5 c 128,-1,7
 372 121 372 121 372 86 c 0,8,9
 372 56 372 56 351 24 c 2,10,-1
 240 -153 l 1,11,-1
 151 -153 l 1,12,-1
 246 -4 l 1,13,0
 219 6 219 6 204 29.5 c 128,-1,1
EndSplineSet
EndChar
StartChar: period
Encoding: 46 46 249
Width: 632
GlyphClass: 1
Flags: W
LayerCount: 2
Fore
SplineSet
215 15 m 128,-1,1
 188 42 188 42 188 80 c 256,2,3
 188 118 188 118 215 145 c 128,-1,4
 242 172 242 172 280 172 c 256,5,6
 318 172 318 172 345 145 c 128,-1,7
 372 118 372 118 372 80 c 256,8,9
 372 42 372 42 345 15 c 128,-1,10
 318 -12 318 -12 280 -12 c 256,11,0
 242 -12 242 -12 215 15 c 128,-1,1
EndSplineSet
EndChar
StartChar: zero
Encoding: 48 48 229
Width: 632
GlyphClass: 1
Flags: W
LayerCount: 2
Fore
SplineSet
112 57.5 m 128,-1,1
 50 127 50 127 50 247 c 0,2,3
 50 344 50 344 84 444 c 128,-1,4
 118 544 118 544 192 612.5 c 128,-1,5
 266 681 266 681 377 681 c 0,6,7
 497 681 497 681 558 611.5 c 128,-1,8
 619 542 619 542 619 424 c 0,9,10
 619 328 619 328 584.5 227 c 128,-1,11
 550 126 550 126 476.5 57 c 128,-1,12
 403 -12 403 -12 293 -12 c 0,13,0
 174 -12 174 -12 112 57.5 c 128,-1,1
393 123 m 1,15,-1
 230 476 l 1,16,17
 202 425 202 425 187 360 c 128,-1,18
 172 295 172 295 172 242 c 0,19,20
 172 169 172 169 201.5 125 c 128,-1,21
 231 81 231 81 295 81 c 0,22,14
 349 81 349 81 393 123 c 1,15,-1
482 310.5 m 128,-1,24
 496 374 496 374 496 426 c 0,25,26
 496 498 496 498 467 543 c 128,-1,27
 438 588 438 588 375 588 c 0,28,29
 323 588 323 588 278 548 c 1,30,-1
 441 196 l 1,31,23
 468 247 468 247 482 310.5 c 128,-1,24
EndSplineSet
Substitution2: "'zero' Slashed Zero in Latin lookup 10 subtable" zero.zero
AlternateSubs2: "'aalt' Access All Alternates in Latin lookup 0 subtable" zero.zero
EndChar
StartChar: one
Encoding: 49 49 230
Width: 632
GlyphClass: 5
Flags: W
LayerCount: 2
Fore
SplineSet
76 102 m 1,0,-1
 235 102 l 1,1,-1
 315 472 l 1,2,-1
 155 472 l 1,3,-1
 176 571 l 1,4,5
 248 570 248 570 281.5 576 c 128,-1,6
 315 582 315 582 337 601.5 c 128,-1,7
 359 621 359 621 386 668 c 1,8,-1
 479 668 l 1,9,-1
 359 102 l 1,10,-1
 497 102 l 1,11,-1
 475 0 l 1,12,-1
 55 0 l 1,13,-1
 76 102 l 1,0,-1
EndSplineSet
Substitution2: "'sups' Superscript in Latin lookup 6 subtable" uni00B9
AlternateSubs2: "'aalt' Access All Alternates in Latin lookup 0 subtable" uni00B9
EndChar
StartChar: three
Encoding: 51 51 232
Width: 632
GlyphClass: 5
Flags: W
LayerCount: 2
Fore
SplineSet
135 28.5 m 128,-1,1
 70 69 70 69 54 148 c 1,2,-1
 170 184 l 1,3,4
 176 133 176 133 212 107.5 c 128,-1,5
 248 82 248 82 299 82 c 0,6,7
 354 82 354 82 391 115.5 c 128,-1,8
 428 149 428 149 428 200 c 0,9,10
 428 249 428 249 386.5 276 c 128,-1,11
 345 303 345 303 282 303 c 2,12,-1
 262 303 l 1,13,-1
 280 391 l 1,14,-1
 346 391 l 2,15,16
 406 391 406 391 442.5 422.5 c 128,-1,17
 479 454 479 454 479 501 c 0,18,19
 479 539 479 539 447.5 562.5 c 128,-1,20
 416 586 416 586 371 586 c 0,21,22
 323 586 323 586 288 562 c 128,-1,23
 253 538 253 538 237 492 c 1,24,-1
 127 534 l 1,25,26
 162 609 162 609 228.5 644.5 c 128,-1,27
 295 680 295 680 375 680 c 0,28,29
 435 680 435 680 488 661.5 c 128,-1,30
 541 643 541 643 573.5 606 c 128,-1,31
 606 569 606 569 606 516 c 0,32,33
 606 453 606 453 566 403 c 128,-1,34
 526 353 526 353 458 338 c 1,35,36
 505 320 505 320 530 283 c 128,-1,37
 555 246 555 246 555 200 c 0,38,39
 555 137 555 137 519.5 88.5 c 128,-1,40
 484 40 484 40 423.5 14 c 128,-1,41
 363 -12 363 -12 291 -12 c 0,42,0
 200 -12 200 -12 135 28.5 c 128,-1,1
EndSplineSet
Substitution2: "'sups' Superscript in Latin lookup 6 subtable" uni00B3
AlternateSubs2: "'aalt' Access All Alternates in Latin lookup 0 subtable" uni00B3
EndChar
StartChar: four
Encoding: 52 52 233
Width: 632
GlyphClass: 5
Flags: W
LayerCount: 2
Fore
SplineSet
349 151 m 1,0,-1
 21 151 l 1,1,-1
 41 248 l 1,2,-1
 452 668 l 1,3,-1
 583 668 l 1,4,-1
 497 262 l 1,5,-1
 594 262 l 1,6,-1
 571 151 l 1,7,-1
 473 151 l 1,8,-1
 441 0 l 1,9,-1
 316 0 l 1,10,-1
 349 151 l 1,0,-1
372 262 m 1,11,-1
 422 498 l 1,12,-1
 418 498 l 1,13,-1
 183 261 l 1,14,-1
 372 262 l 1,11,-1
EndSplineSet
EndChar
StartChar: nine
Encoding: 57 57 238
Width: 632
GlyphClass: 1
Flags: W
LayerCount: 2
Fore
SplineSet
219 225.5 m 128,-1,1
 168 252 168 252 137.5 301 c 128,-1,2
 107 350 107 350 107 411 c 0,3,4
 107 482 107 482 142.5 544 c 128,-1,5
 178 606 178 606 239 643 c 128,-1,6
 300 680 300 680 373 680 c 0,7,8
 437 680 437 680 487.5 651 c 128,-1,9
 538 622 538 622 565.5 573 c 128,-1,10
 593 524 593 524 593 465 c 0,11,12
 593 411 593 411 570 360.5 c 128,-1,13
 547 310 547 310 502 254 c 2,14,-1
 299 0 l 1,15,-1
 160 0 l 1,16,-1
 327 203 l 1,17,0
 270 199 270 199 219 225.5 c 128,-1,1
408 327.5 m 128,-1,19
 441 347 441 347 460.5 380.5 c 128,-1,20
 480 414 480 414 480 452 c 0,21,22
 480 501 480 501 448 535.5 c 128,-1,23
 416 570 416 570 364 570 c 0,24,25
 324 570 324 570 291 549.5 c 128,-1,26
 258 529 258 529 238.5 495.5 c 128,-1,27
 219 462 219 462 219 423 c 0,28,29
 219 372 219 372 252.5 340 c 128,-1,30
 286 308 286 308 337 308 c 0,31,18
 375 308 375 308 408 327.5 c 128,-1,19
EndSplineSet
EndChar
StartChar: equal
Encoding: 61 61 315
Width: 632
GlyphClass: 1
Flags: W
LayerCount: 2
Fore
SplineSet
93 397 m 1,0,-1
 601 397 l 1,1,-1
 579 291 l 1,2,-1
 71 291 l 1,3,-1
 93 397 l 1,0,-1
55 214 m 1,4,-1
 562 214 l 1,5,-1
 540 107 l 1,6,-1
 33 107 l 1,7,-1
 55 214 l 1,4,-1
EndSplineSet
EndChar
StartChar: greater
Encoding: 62 62 317
Width: 632
GlyphClass: 1
Flags: W
LayerCount: 2
Fore
SplineSet
47 120 m 1,0,-1
 420 256 l 1,1,-1
 105 392 l 1,2,-1
 128 503 l 1,3,-1
 567 291 l 1,4,-1
 550 207 l 1,5,-1
 20 -6 l 1,6,-1
 47 120 l 1,0,-1
EndSplineSet
EndChar
StartChar: question
Encoding: 63 63 256
Width: 632
GlyphClass: 1
Flags: W
LayerCount: 2
Fore
SplineSet
266 340.5 m 128,-1,1
 299 377 299 377 369 406 c 0,2,3
 425 429 425 429 454 451.5 c 128,-1,4
 483 474 483 474 483 507 c 0,5,6
 483 538 483 538 451 558.5 c 128,-1,7
 419 579 419 579 373 579 c 0,8,9
 326 579 326 579 290 555 c 128,-1,10
 254 531 254 531 238 492 c 1,11,-1
 125 532 l 1,12,13
 155 603 155 603 222.5 641.5 c 128,-1,14
 290 680 290 680 382 680 c 0,15,16
 438 680 438 680 491.5 661.5 c 128,-1,17
 545 643 545 643 579 605.5 c 128,-1,18
 613 568 613 568 613 515 c 0,19,20
 613 447 613 447 570 402.5 c 128,-1,21
 527 358 527 358 444 324 c 0,22,23
 388 301 388 301 367.5 282.5 c 128,-1,24
 347 264 347 264 342 236 c 2,25,-1
 337 212 l 1,26,-1
 212 212 l 1,27,-1
 217 238 l 2,28,0
 233 304 233 304 266 340.5 c 128,-1,1
188 12.5 m 128,-1,30
 163 37 163 37 163 71 c 0,31,32
 163 106 163 106 187.5 130 c 128,-1,33
 212 154 212 154 247 154 c 0,34,35
 281 154 281 154 305 130 c 128,-1,36
 329 106 329 106 329 71 c 0,37,38
 329 37 329 37 305 12.5 c 128,-1,39
 281 -12 281 -12 247 -12 c 256,40,29
 213 -12 213 -12 188 12.5 c 128,-1,30
EndSplineSet
EndChar
StartChar: at
Encoding: 64 64 288
Width: 632
GlyphClass: 1
Flags: W
LayerCount: 2
Fore
SplineSet
132.5 -61 m 128,-1,1
 72 -23 72 -23 40 43 c 128,-1,2
 8 109 8 109 8 191 c 0,3,4
 8 297 8 297 53.5 393 c 128,-1,5
 99 489 99 489 181 548 c 128,-1,6
 263 607 263 607 367 607 c 0,7,8
 452 607 452 607 512.5 571.5 c 128,-1,9
 573 536 573 536 603.5 475 c 128,-1,10
 634 414 634 414 634 340 c 0,11,12
 634 284 634 284 614.5 222 c 128,-1,13
 595 160 595 160 555.5 117 c 128,-1,14
 516 74 516 74 458 74 c 0,15,16
 431 74 431 74 407 89 c 128,-1,17
 383 104 383 104 373 131 c 1,18,19
 325 75 325 75 268 75 c 0,20,21
 213 75 213 75 183 115 c 128,-1,22
 153 155 153 155 153 212 c 0,23,24
 153 267 153 267 177.5 319.5 c 128,-1,25
 202 372 202 372 247 405.5 c 128,-1,26
 292 439 292 439 352 439 c 0,27,28
 382 439 382 439 417.5 430 c 128,-1,29
 453 421 453 421 484 406 c 1,30,-1
 444 219 l 2,31,32
 441 195 441 195 441 191 c 0,33,34
 441 143 441 143 476 143 c 0,35,36
 504 143 504 143 524 176.5 c 128,-1,37
 544 210 544 210 554 256 c 128,-1,38
 564 302 564 302 564 336 c 0,39,40
 564 427 564 427 512 485 c 128,-1,41
 460 543 460 543 360 543 c 0,42,43
 270 543 270 543 206.5 488.5 c 128,-1,44
 143 434 143 434 111.5 353 c 128,-1,45
 80 272 80 272 80 195 c 0,46,47
 80 94 80 94 133 29.5 c 128,-1,48
 186 -35 186 -35 286 -35 c 0,49,50
 334 -35 334 -35 386 -11 c 1,51,-1
 370 -83 l 1,52,53
 326 -99 326 -99 276 -99 c 0,54,0
 193 -99 193 -99 132.5 -61 c 128,-1,1
341.5 174.5 m 128,-1,56
 366 198 366 198 374 237 c 2,57,-1
 398 354 l 1,58,59
 372 365 372 365 347 365 c 0,60,61
 311 365 311 365 285.5 341.5 c 128,-1,62
 260 318 260 318 248 284 c 128,-1,63
 236 250 236 250 236 218 c 0,64,65
 236 188 236 188 249.5 169.5 c 128,-1,66
 263 151 263 151 290 151 c 256,67,55
 317 151 317 151 341.5 174.5 c 128,-1,56
EndSplineSet
EndChar
StartChar: C
Encoding: 67 67 14
Width: 632
GlyphClass: 2
Flags: W
AnchorPoint: "Anchor-1" 427 668 basechar 0
AnchorPoint: "Anchor-0" 313 0 basechar 0
LayerCount: 2
Fore
SplineSet
128 62.5 m 128,-1,1
 65 137 65 137 65 259 c 0,2,3
 65 355 65 355 103.5 452.5 c 128,-1,4
 142 550 142 550 218.5 615 c 128,-1,5
 295 680 295 680 403 680 c 0,6,7
 485 680 485 680 543 638 c 128,-1,8
 601 596 601 596 623 520 c 1,9,-1
 519 485 l 1,10,11
 507 528 507 528 476 552.5 c 128,-1,12
 445 577 445 577 401 577 c 0,13,14
 333 577 333 577 285.5 526 c 128,-1,15
 238 475 238 475 214.5 402 c 128,-1,16
 191 329 191 329 191 266 c 0,17,18
 191 189 191 189 225 140 c 128,-1,19
 259 91 259 91 328 91 c 0,20,21
 369 91 369 91 405 113 c 128,-1,22
 441 135 441 135 469 180 c 1,23,-1
 569 138 l 1,24,25
 523 66 523 66 456.5 27 c 128,-1,26
 390 -12 390 -12 313 -12 c 0,27,0
 191 -12 191 -12 128 62.5 c 128,-1,1
EndSplineSet
EndChar
StartChar: E
Encoding: 69 69 23
Width: 632
GlyphClass: 2
Flags: W
AnchorPoint: "Anchor-2" 504 10 basechar 0
AnchorPoint: "Anchor-1" 421 668 basechar 0
AnchorPoint: "Anchor-0" 264 0 basechar 0
LayerCount: 2
Fore
SplineSet
195 668 m 1,0,-1
 640 668 l 1,1,-1
 616 555 l 1,2,-1
 299 555 l 1,3,-1
 266 400 l 1,4,-1
 477 400 l 1,5,-1
 453 288 l 1,6,-1
 242 288 l 1,7,-1
 205 113 l 1,8,-1
 526 113 l 1,9,-1
 502 0 l 1,10,-1
 53 0 l 1,11,-1
 195 668 l 1,0,-1
EndSplineSet
EndChar
StartChar: J
Encoding: 74 74 48
Width: 632
GlyphClass: 2
Flags: W
AnchorPoint: "Anchor-1" 568 668 basechar 0
AnchorPoint: "Anchor-0" 262 0 basechar 0
LayerCount: 2
Fore
SplineSet
97 36 m 128,-1,1
 31 84 31 84 25 182 c 1,2,-1
 148 223 l 1,3,4
 146 91 146 91 275 91 c 0,5,6
 326 91 326 91 360 121.5 c 128,-1,7
 394 152 394 152 410 223 c 2,8,-1
 504 668 l 1,9,-1
 633 668 l 1,10,-1
 535 209 l 2,11,12
 512 101 512 101 444.5 44.5 c 128,-1,13
 377 -12 377 -12 269 -12 c 0,14,0
 163 -12 163 -12 97 36 c 128,-1,1
EndSplineSet
Substitution2: "Single Substitution lookup 13 subtable" uni004A0301
AlternateSubs2: "'aalt' Access All Alternates in Latin lookup 0 subtable" uni004A0301
EndChar
StartChar: M
Encoding: 77 77 56
Width: 632
GlyphClass: 2
Flags: W
AnchorPoint: "Anchor-1" 405 668 basechar 0
AnchorPoint: "Anchor-0" 263 0 basechar 0
LayerCount: 2
Fore
SplineSet
130 668 m 1,0,-1
 294 668 l 1,1,-1
 297 162 l 1,2,-1
 301 162 l 1,3,-1
 520 668 l 1,4,-1
 680 668 l 1,5,-1
 538 0 l 1,6,-1
 439 0 l 1,7,-1
 554 541 l 1,8,-1
 550 541 l 1,9,-1
 313 0 l 1,10,-1
 212 0 l 1,11,-1
 205 541 l 1,12,-1
 201 541 l 1,13,-1
 86 0 l 1,14,-1
 -12 0 l 1,15,-1
 130 668 l 1,0,-1
EndSplineSet
EndChar
StartChar: O
Encoding: 79 79 62
Width: 632
GlyphClass: 2
Flags: W
AnchorPoint: "Anchor-3" 703 668 basechar 0
AnchorPoint: "Anchor-2" 517 10 basechar 0
AnchorPoint: "Anchor-1" 406 668 basechar 0
AnchorPoint: "Anchor-0" 264 0 basechar 0
LayerCount: 2
Fore
SplineSet
110 59.5 m 128,-1,1
 50 131 50 131 50 253 c 0,2,3
 50 353 50 353 86.5 451.5 c 128,-1,4
 123 550 123 550 197.5 615 c 128,-1,5
 272 680 272 680 378 680 c 0,6,7
 498 680 498 680 558 608.5 c 128,-1,8
 618 537 618 537 618 415 c 0,9,10
 618 315 618 315 581.5 216.5 c 128,-1,11
 545 118 545 118 470.5 53 c 128,-1,12
 396 -12 396 -12 290 -12 c 0,13,0
 170 -12 170 -12 110 59.5 c 128,-1,1
406 145 m 128,-1,15
 451 199 451 199 472.5 275 c 128,-1,16
 494 351 494 351 494 415 c 0,17,18
 494 487 494 487 464.5 532 c 128,-1,19
 435 577 435 577 372 577 c 0,20,21
 307 577 307 577 262 523 c 128,-1,22
 217 469 217 469 195.5 393 c 128,-1,23
 174 317 174 317 174 253 c 0,24,25
 174 181 174 181 203.5 136 c 128,-1,26
 233 91 233 91 296 91 c 0,27,14
 361 91 361 91 406 145 c 128,-1,15
EndSplineSet
Substitution2: "Single Substitution lookup 14 subtable" ordmasculine
AlternateSubs2: "'aalt' Access All Alternates in Latin lookup 0 subtable" ordmasculine
EndChar
StartChar: S
Encoding: 83 83 77
Width: 632
GlyphClass: 2
Flags: W
AnchorPoint: "Anchor-1" 395 668 basechar 0
AnchorPoint: "Anchor-0" 293 0 basechar 0
LayerCount: 2
Fore
SplineSet
132 33 m 128,-1,1
 62 78 62 78 42 156 c 1,2,-1
 161 196 l 1,3,4
 170 147 170 147 212.5 119.5 c 128,-1,5
 255 92 255 92 310 92 c 0,6,7
 366 92 366 92 402.5 120 c 128,-1,8
 439 148 439 148 439 193 c 0,9,10
 439 225 439 225 409.5 246.5 c 128,-1,11
 380 268 380 268 333 283 c 2,12,-1
 270 305 l 1,13,14
 117 353 117 353 117 472 c 0,15,16
 117 533 117 533 153.5 580.5 c 128,-1,17
 190 628 190 628 250 654 c 128,-1,18
 310 680 310 680 380 680 c 0,19,20
 463 680 463 680 526 644 c 128,-1,21
 589 608 589 608 611 540 c 1,22,-1
 493 499 l 1,23,24
 480 535 480 535 445.5 555.5 c 128,-1,25
 411 576 411 576 366 576 c 0,26,27
 318 576 318 576 283 553 c 128,-1,28
 248 530 248 530 248 491 c 0,29,30
 248 462 248 462 266.5 443.5 c 128,-1,31
 285 425 285 425 320 413 c 2,32,-1
 391 388 l 2,33,34
 483 357 483 357 527 316.5 c 128,-1,35
 571 276 571 276 571 214 c 0,36,37
 571 149 571 149 534.5 97.5 c 128,-1,38
 498 46 498 46 435 17 c 128,-1,39
 372 -12 372 -12 296 -12 c 0,40,0
 202 -12 202 -12 132 33 c 128,-1,1
EndSplineSet
EndChar
StartChar: U
Encoding: 85 85 87
Width: 632
GlyphClass: 2
Flags: W
AnchorPoint: "Anchor-3" 722 668 basechar 0
AnchorPoint: "Anchor-1" 403 668 basechar 0
LayerCount: 2
Fore
SplineSet
121 36.5 m 128,-1,1
 59 85 59 85 59 186 c 0,2,3
 59 231 59 231 71 285 c 2,4,-1
 152 668 l 1,5,-1
 281 668 l 1,6,-1
 193 256 l 2,7,8
 186 219 186 219 186 198 c 0,9,10
 186 93 186 93 304 93 c 0,11,12
 360 93 360 93 391 127.5 c 128,-1,13
 422 162 422 162 436 230 c 2,14,-1
 529 668 l 1,15,-1
 658 668 l 1,16,-1
 566 233 l 2,17,18
 539 107 539 107 477.5 47.5 c 128,-1,19
 416 -12 416 -12 306 -12 c 0,20,0
 183 -12 183 -12 121 36.5 c 128,-1,1
EndSplineSet
EndChar
StartChar: W
Encoding: 87 87 97
Width: 632
GlyphClass: 2
Flags: W
AnchorPoint: "Anchor-1" 403 668 basechar 0
AnchorPoint: "Anchor-0" 264 0 basechar 0
LayerCount: 2
Fore
SplineSet
98 668 m 1,0,-1
 198 668 l 1,1,-1
 158 161 l 1,2,-1
 162 161 l 1,3,-1
 346 668 l 1,4,-1
 460 668 l 1,5,-1
 429 161 l 1,6,-1
 433 161 l 1,7,-1
 607 668 l 1,8,-1
 712 668 l 1,9,-1
 459 0 l 1,10,-1
 340 0 l 1,11,-1
 372 504 l 1,12,-1
 368 504 l 1,13,-1
 187 0 l 1,14,-1
 68 0 l 1,15,-1
 98 668 l 1,0,-1
EndSplineSet
EndChar
StartChar: bracketleft
Encoding: 91 91 272
Width: 632
GlyphClass: 1
Flags: W
LayerCount: 2
Fore
SplineSet
279 708 m 1,0,-1
 580 708 l 1,1,-1
 560 615 l 1,2,-1
 367 615 l 1,3,-1
 222 -69 l 1,4,-1
 415 -69 l 1,5,-1
 396 -162 l 1,6,-1
 95 -162 l 1,7,-1
 279 708 l 1,0,-1
EndSplineSet
EndChar
StartChar: bracketright
Encoding: 93 93 273
Width: 632
GlyphClass: 1
Flags: W
LayerCount: 2
Fore
SplineSet
83 -69 m 1,0,-1
 276 -69 l 1,1,-1
 421 615 l 1,2,-1
 228 615 l 1,3,-1
 247 708 l 1,4,-1
 548 708 l 1,5,-1
 364 -162 l 1,6,-1
 63 -162 l 1,7,-1
 83 -69 l 1,0,-1
EndSplineSet
EndChar
StartChar: b
Encoding: 98 98 123
Width: 632
GlyphClass: 2
Flags: W
AnchorPoint: "Anchor-1" 363 496 basechar 0
AnchorPoint: "Anchor-0" 258 0 basechar 0
LayerCount: 2
Fore
SplineSet
223 12.5 m 128,-1,1
 181 37 181 37 163 79 c 1,2,-1
 130 0 l 1,3,-1
 22 0 l 1,4,-1
 173 708 l 1,5,-1
 297 708 l 1,6,-1
 237 431 l 1,7,8
 267 466 267 466 312.5 487.5 c 128,-1,9
 358 509 358 509 406 509 c 0,10,11
 491 509 491 509 540 451.5 c 128,-1,12
 589 394 589 394 589 302 c 0,13,14
 589 220 589 220 557 148 c 128,-1,15
 525 76 525 76 464 32 c 128,-1,16
 403 -12 403 -12 321 -12 c 0,17,0
 265 -12 265 -12 223 12.5 c 128,-1,1
390 119 m 128,-1,19
 427 152 427 152 444 199 c 128,-1,20
 461 246 461 246 461 288 c 0,21,22
 461 343 461 343 433 377.5 c 128,-1,23
 405 412 405 412 354 412 c 0,24,25
 299 412 299 412 261.5 378.5 c 128,-1,26
 224 345 224 345 206 296 c 128,-1,27
 188 247 188 247 188 202 c 0,28,29
 188 148 188 148 216 117 c 128,-1,30
 244 86 244 86 297 86 c 0,31,18
 353 86 353 86 390 119 c 128,-1,19
EndSplineSet
EndChar
StartChar: d
Encoding: 100 100 129
Width: 632
GlyphClass: 2
Flags: W
AnchorPoint: "Anchor-3" 628 497 basechar 0
AnchorPoint: "Anchor-1" 438 796 basechar 0
AnchorPoint: "Anchor-0" 269 0 basechar 0
LayerCount: 2
Fore
SplineSet
92 45.5 m 128,-1,1
 43 103 43 103 43 195 c 0,2,3
 43 276 43 276 75 348.5 c 128,-1,4
 107 421 107 421 168 465 c 128,-1,5
 229 509 229 509 312 509 c 0,6,7
 368 509 368 509 409.5 484.5 c 128,-1,8
 451 460 451 460 469 414 c 1,9,-1
 532 708 l 1,10,-1
 656 708 l 1,11,-1
 546 191 l 2,12,13
 524 87 524 87 522 0 c 1,14,-1
 404 0 l 1,15,-1
 398 70 l 1,16,17
 363 29 363 29 318 8.5 c 128,-1,18
 273 -12 273 -12 226 -12 c 0,19,0
 141 -12 141 -12 92 45.5 c 128,-1,1
369.5 119 m 128,-1,21
 407 152 407 152 425 200.5 c 128,-1,22
 443 249 443 249 443 295 c 0,23,24
 443 350 443 350 415.5 381 c 128,-1,25
 388 412 388 412 334 412 c 0,26,27
 278 412 278 412 241.5 379 c 128,-1,28
 205 346 205 346 188 299 c 128,-1,29
 171 252 171 252 171 210 c 0,30,31
 171 154 171 154 199 120 c 128,-1,32
 227 86 227 86 279 86 c 0,33,20
 332 86 332 86 369.5 119 c 128,-1,21
EndSplineSet
EndChar
StartChar: k
Encoding: 107 107 161
Width: 632
GlyphClass: 2
Flags: W
AnchorPoint: "Anchor-1" 443 796 basechar 0
AnchorPoint: "Anchor-0" 276 0 basechar 0
LayerCount: 2
Fore
SplineSet
198 708 m 1,0,-1
 322 708 l 1,1,-1
 232 282 l 1,2,-1
 482 496 l 1,3,-1
 640 496 l 1,4,-1
 386 286 l 1,5,-1
 554 0 l 1,6,-1
 416 0 l 1,7,-1
 295 209 l 1,8,-1
 200 130 l 1,9,-1
 172 0 l 1,10,-1
 48 0 l 1,11,-1
 198 708 l 1,0,-1
EndSplineSet
EndChar
StartChar: l
Encoding: 108 108 163
Width: 632
GlyphClass: 2
Flags: W
AnchorPoint: "Anchor-3" 431 498 basechar 0
AnchorPoint: "Anchor-1" 406 796 basechar 0
AnchorPoint: "Anchor-0" 331 0 basechar 0
LayerCount: 2
Fore
SplineSet
209.5 20 m 128,-1,1
 175 40 175 40 175 88 c 0,2,3
 175 106 175 106 182 141 c 2,4,-1
 282 613 l 1,5,-1
 167 613 l 1,6,-1
 186 708 l 1,7,-1
 426 708 l 1,8,-1
 311 164 l 2,9,10
 307 148 307 148 307 134 c 0,11,12
 307 115 307 115 320.5 107.5 c 128,-1,13
 334 100 334 100 369 100 c 2,14,-1
 532 100 l 1,15,-1
 512 0 l 1,16,-1
 328 0 l 2,17,0
 244 0 244 0 209.5 20 c 128,-1,1
EndSplineSet
EndChar
StartChar: m
Encoding: 109 109 167
Width: 632
GlyphClass: 2
Flags: W
AnchorPoint: "Anchor-1" 369 496 basechar 0
AnchorPoint: "Anchor-0" 265 0 basechar 0
LayerCount: 2
Fore
SplineSet
106 496 m 1,0,-1
 191 496 l 1,1,-1
 192 447 l 1,2,3
 215 475 215 475 245.5 492 c 128,-1,4
 276 509 276 509 311 509 c 0,5,6
 383 509 383 509 397 449 c 1,7,8
 419 476 419 476 451 492.5 c 128,-1,9
 483 509 483 509 520 509 c 0,10,11
 567 509 567 509 590 485.5 c 128,-1,12
 613 462 613 462 613 419 c 0,13,14
 613 403 613 403 608 376 c 2,15,-1
 528 0 l 1,16,-1
 424 0 l 1,17,-1
 496 338 l 2,18,19
 500 354 500 354 500 370 c 0,20,21
 500 412 500 412 463 412 c 0,22,23
 435 412 435 412 414.5 388 c 128,-1,24
 394 364 394 364 385 319 c 2,25,-1
 316 0 l 1,26,-1
 212 0 l 1,27,-1
 284 339 l 2,28,29
 288 355 288 355 288 372 c 0,30,31
 288 412 288 412 252 412 c 0,32,33
 224 412 224 412 203 387.5 c 128,-1,34
 182 363 182 363 172 318 c 2,35,-1
 104 0 l 1,36,-1
 0 0 l 1,37,-1
 106 496 l 1,0,-1
EndSplineSet
EndChar
StartChar: n
Encoding: 110 110 168
Width: 632
GlyphClass: 2
Flags: W
AnchorPoint: "Anchor-1" 370 496 basechar 0
AnchorPoint: "Anchor-0" 262 0 basechar 0
LayerCount: 2
Fore
SplineSet
142 496 m 1,0,-1
 250 496 l 1,1,-1
 251 426 l 1,2,3
 277 459 277 459 322 484 c 128,-1,4
 367 509 367 509 420 509 c 0,5,6
 494 509 494 509 530 472.5 c 128,-1,7
 566 436 566 436 566 370 c 0,8,9
 566 341 566 341 558 303 c 2,10,-1
 494 0 l 1,11,-1
 369 0 l 1,12,-1
 430 284 l 2,13,14
 435 307 435 307 435 333 c 0,15,16
 435 412 435 412 357 412 c 0,17,18
 308 412 308 412 269 370 c 128,-1,19
 230 328 230 328 215 257 c 2,20,-1
 161 0 l 1,21,-1
 36 0 l 1,22,-1
 142 496 l 1,0,-1
EndSplineSet
EndChar
StartChar: q
Encoding: 113 113 184
Width: 632
GlyphClass: 2
Flags: W
AnchorPoint: "Anchor-1" 377 496 basechar 0
AnchorPoint: "Anchor-0" 271 0 basechar 0
LayerCount: 2
Fore
SplineSet
382.5 -148.5 m 128,-1,1
 351 -123 351 -123 351 -69 c 0,2,3
 351 -42 351 -42 358 -13 c 2,4,-1
 375 67 l 1,5,6
 345 30 345 30 300 9 c 128,-1,7
 255 -12 255 -12 210 -12 c 0,8,9
 132 -12 132 -12 86.5 42.5 c 128,-1,10
 41 97 41 97 41 188 c 0,11,12
 41 265 41 265 70.5 339 c 128,-1,13
 100 413 100 413 158.5 461 c 128,-1,14
 217 509 217 509 300 509 c 0,15,16
 352 509 352 509 391.5 484.5 c 128,-1,17
 431 460 431 460 449 416 c 1,18,-1
 484 496 l 1,19,-1
 591 496 l 1,20,-1
 487 4 l 2,21,22
 483 -13 483 -13 483 -29 c 0,23,24
 483 -50 483 -50 492.5 -59 c 128,-1,25
 502 -68 502 -68 523 -68 c 256,26,27
 544 -68 544 -68 566 -59 c 1,28,-1
 544 -163 l 1,29,30
 515 -174 515 -174 477 -174 c 0,31,0
 414 -174 414 -174 382.5 -148.5 c 128,-1,1
352.5 119 m 128,-1,33
 388 152 388 152 406 201.5 c 128,-1,34
 424 251 424 251 424 299 c 0,35,36
 424 352 424 352 398.5 382 c 128,-1,37
 373 412 373 412 326 412 c 0,38,39
 273 412 273 412 237.5 378.5 c 128,-1,40
 202 345 202 345 185.5 297 c 128,-1,41
 169 249 169 249 169 207 c 0,42,43
 169 154 169 154 195.5 120 c 128,-1,44
 222 86 222 86 269 86 c 0,45,32
 317 86 317 86 352.5 119 c 128,-1,33
EndSplineSet
EndChar
StartChar: r
Encoding: 114 114 185
Width: 632
GlyphClass: 2
Flags: W
AnchorPoint: "Anchor-1" 378 496 basechar 0
AnchorPoint: "Anchor-0" 140 0 basechar 0
LayerCount: 2
Fore
SplineSet
183 496 m 1,0,-1
 280 496 l 1,1,-1
 281 393 l 1,2,3
 331 452 331 452 395 480 c 128,-1,4
 459 508 459 508 528 508 c 0,5,6
 572 508 572 508 612 498 c 1,7,-1
 586 374 l 1,8,9
 539 392 539 392 480 392 c 0,10,11
 389 392 389 392 326.5 341 c 128,-1,12
 264 290 264 290 243 194 c 2,13,-1
 202 0 l 1,14,-1
 78 0 l 1,15,-1
 183 496 l 1,0,-1
EndSplineSet
EndChar
StartChar: t
Encoding: 116 116 194
Width: 632
GlyphClass: 2
Flags: W
AnchorPoint: "Anchor-3" 424 550 basechar 0
AnchorPoint: "Anchor-1" 340 496 basechar 0
AnchorPoint: "Anchor-0" 284 0 basechar 0
LayerCount: 2
Fore
SplineSet
211 20.5 m 128,-1,1
 177 41 177 41 177 92 c 0,2,3
 177 110 177 110 184 148 c 2,4,-1
 238 401 l 1,5,-1
 135 401 l 1,6,-1
 156 496 l 1,7,-1
 259 496 l 1,8,-1
 285 620 l 1,9,-1
 409 620 l 1,10,-1
 383 496 l 1,11,-1
 589 496 l 1,12,-1
 568 401 l 1,13,-1
 362 401 l 1,14,-1
 312 166 l 2,15,16
 308 144 308 144 308 139 c 0,17,18
 308 117 308 117 322.5 108.5 c 128,-1,19
 337 100 337 100 371 100 c 2,20,-1
 454 100 l 1,21,-1
 433 0 l 1,22,-1
 325 0 l 2,23,0
 245 0 245 0 211 20.5 c 128,-1,1
EndSplineSet
EndChar
StartChar: u
Encoding: 117 117 198
Width: 632
GlyphClass: 2
Flags: W
AnchorPoint: "Anchor-3" 624 496 basechar 0
AnchorPoint: "Anchor-2" 489 10 basechar 0
AnchorPoint: "Anchor-1" 363 496 basechar 0
AnchorPoint: "Anchor-0" 258 0 basechar 0
LayerCount: 2
Fore
SplineSet
105 24.5 m 128,-1,1
 70 61 70 61 70 126 c 0,2,3
 70 155 70 155 78 193 c 2,4,-1
 142 496 l 1,5,-1
 267 496 l 1,6,-1
 207 212 l 2,7,8
 201 185 201 185 201 162 c 0,9,10
 201 86 201 86 275 86 c 0,11,12
 322 86 322 86 359.5 127 c 128,-1,13
 397 168 397 168 413 240 c 2,14,-1
 467 496 l 1,15,-1
 592 496 l 1,16,-1
 487 0 l 1,17,-1
 380 0 l 1,18,-1
 378 73 l 1,19,20
 310 -12 310 -12 212 -12 c 0,21,0
 140 -12 140 -12 105 24.5 c 128,-1,1
EndSplineSet
EndChar
StartChar: w
Encoding: 119 119 208
Width: 632
GlyphClass: 2
Flags: W
AnchorPoint: "Anchor-1" 366 496 basechar 0
AnchorPoint: "Anchor-0" 263 0 basechar 0
LayerCount: 2
Fore
SplineSet
74 496 m 1,0,-1
 175 496 l 1,1,-1
 171 139 l 1,2,-1
 175 139 l 1,3,-1
 317 496 l 1,4,-1
 418 496 l 1,5,-1
 409 140 l 1,6,-1
 413 140 l 1,7,-1
 559 496 l 1,8,-1
 664 496 l 1,9,-1
 448 0 l 1,10,-1
 337 0 l 1,11,-1
 341 359 l 1,12,-1
 337 359 l 1,13,-1
 190 0 l 1,14,-1
 79 0 l 1,15,-1
 74 496 l 1,0,-1
EndSplineSet
EndChar
StartChar: y
Encoding: 121 121 214
Width: 632
GlyphClass: 2
Flags: W
AnchorPoint: "Anchor-1" 359 496 basechar 0
AnchorPoint: "Anchor-0" 263 0 basechar 0
LayerCount: 2
Fore
SplineSet
15 -68 m 1,0,-1
 89 -68 l 2,1,2
 129 -68 129 -68 147.5 -59.5 c 128,-1,3
 166 -51 166 -51 181 -27 c 2,4,-1
 207 11 l 1,5,-1
 106 496 l 1,6,-1
 235 496 l 1,7,-1
 291 152 l 1,8,-1
 295 152 l 1,9,-1
 495 496 l 1,10,-1
 632 496 l 1,11,-1
 309 -13 l 2,12,13
 269 -77 269 -77 242 -107 c 128,-1,14
 215 -137 215 -137 180 -149.5 c 128,-1,15
 145 -162 145 -162 86 -162 c 2,16,-1
 -5 -162 l 1,17,-1
 15 -68 l 1,0,-1
EndSplineSet
EndChar
StartChar: z
Encoding: 122 122 219
Width: 632
GlyphClass: 2
Flags: W
AnchorPoint: "Anchor-1" 380 496 basechar 0
AnchorPoint: "Anchor-0" 261 0 basechar 0
LayerCount: 2
Fore
SplineSet
51 100 m 1,0,-1
 400 396 l 1,1,-1
 127 396 l 1,2,-1
 148 496 l 1,3,-1
 600 496 l 1,4,-1
 578 396 l 1,5,-1
 229 100 l 1,6,-1
 528 100 l 1,7,-1
 507 0 l 1,8,-1
 29 0 l 1,9,-1
 51 100 l 1,0,-1
EndSplineSet
EndChar
StartChar: bar
Encoding: 124 124 296
Width: 632
GlyphClass: 1
Flags: W
LayerCount: 2
Fore
SplineSet
381 838 m 1,0,-1
 501 838 l 1,1,-1
 289 -162 l 1,2,-1
 169 -162 l 1,3,-1
 381 838 l 1,0,-1
EndSplineSet
EndChar
StartChar: asciitilde
Encoding: 126 126 324
Width: 632
GlyphClass: 1
Flags: W
LayerCount: 2
Fore
SplineSet
130.5 301.5 m 128,-1,1
 167 341 167 341 225 341 c 0,2,3
 255 341 255 341 278 332 c 128,-1,4
 301 323 301 323 330 306 c 0,5,6
 354 292 354 292 369.5 285.5 c 128,-1,7
 385 279 385 279 404 279 c 0,8,9
 433 279 433 279 451.5 298 c 128,-1,10
 470 317 470 317 479 361 c 1,11,-1
 564 330 l 1,12,13
 543 256 543 256 506.5 216.5 c 128,-1,14
 470 177 470 177 412 177 c 0,15,16
 382 177 382 177 359 186 c 128,-1,17
 336 195 336 195 307 212 c 0,18,19
 283 226 283 226 267.5 232.5 c 128,-1,20
 252 239 252 239 233 239 c 0,21,22
 204 239 204 239 185.5 220 c 128,-1,23
 167 201 167 201 158 157 c 1,24,-1
 73 188 l 1,25,0
 94 262 94 262 130.5 301.5 c 128,-1,1
EndSplineSet
EndChar
StartChar: exclamdown
Encoding: 161 161 255
Width: 632
GlyphClass: 1
Flags: W
LayerCount: 2
Fore
SplineSet
198 2 m 1,0,-1
 281 276 l 1,1,-1
 364 276 l 1,2,-1
 331 2 l 1,3,-1
 294 -170 l 1,4,-1
 162 -170 l 1,5,-1
 198 2 l 1,0,-1
295.5 367.5 m 128,-1,7
 271 392 271 392 271 427 c 0,8,9
 271 461 271 461 295.5 485.5 c 128,-1,10
 320 510 320 510 354 510 c 0,11,12
 389 510 389 510 413.5 485.5 c 128,-1,13
 438 461 438 461 438 427 c 0,14,15
 438 392 438 392 413.5 367.5 c 128,-1,16
 389 343 389 343 354 343 c 0,17,6
 320 343 320 343 295.5 367.5 c 128,-1,7
EndSplineSet
EndChar
StartChar: cent
Encoding: 162 162 302
Width: 632
GlyphClass: 1
Flags: W
LayerCount: 2
Fore
SplineSet
137 62.5 m 128,-1,1
 94 116 94 116 94 200 c 0,2,3
 94 279 94 279 127 348.5 c 128,-1,4
 160 418 160 418 221.5 461.5 c 128,-1,5
 283 505 283 505 363 507 c 1,6,-1
 380 586 l 1,7,-1
 443 586 l 1,8,-1
 425 502 l 1,9,10
 476 493 476 493 513.5 463 c 128,-1,11
 551 433 551 433 570 382 c 1,12,-1
 465 348 l 1,13,14
 448 392 448 392 404 403 c 1,15,-1
 337 87 l 1,16,17
 397 91 397 91 431 141 c 1,18,-1
 535 100 l 1,19,20
 497 46 497 46 440 17.5 c 128,-1,21
 383 -11 383 -11 316 -13 c 1,22,-1
 299 -90 l 1,23,-1
 236 -90 l 1,24,-1
 254 -7 l 1,25,0
 180 9 180 9 137 62.5 c 128,-1,1
274 361.5 m 128,-1,27
 247 328 247 328 234 285.5 c 128,-1,28
 221 243 221 243 221 205 c 0,29,30
 221 166 221 166 235 138 c 128,-1,31
 249 110 249 110 276 98 c 1,32,-1
 341 404 l 1,33,26
 301 395 301 395 274 361.5 c 128,-1,27
EndSplineSet
EndChar
StartChar: sterling
Encoding: 163 163 307
Width: 632
GlyphClass: 1
Flags: W
LayerCount: 2
Fore
SplineSet
157.5 166.5 m 128,-1,1
 201 215 201 215 201 280 c 1,2,-1
 199 305 l 1,3,-1
 82 305 l 1,4,-1
 96 369 l 1,5,-1
 185 369 l 1,6,7
 162 447 162 447 162 491 c 0,8,9
 162 549 162 549 192 591.5 c 128,-1,10
 222 634 222 634 275.5 657 c 128,-1,11
 329 680 329 680 398 680 c 0,12,13
 483 680 483 680 547 642.5 c 128,-1,14
 611 605 611 605 632 535 c 1,15,-1
 517 498 l 1,16,17
 510 537 510 537 478 558 c 128,-1,18
 446 579 446 579 400 579 c 0,19,20
 349 579 349 579 319 553 c 128,-1,21
 289 527 289 527 289 480 c 0,22,23
 289 459 289 459 294.5 436 c 128,-1,24
 300 413 300 413 314 369 c 1,25,-1
 485 369 l 1,26,-1
 471 305 l 1,27,-1
 328 305 l 1,28,-1
 330 283 l 1,29,30
 330 228 330 228 293 181 c 128,-1,31
 256 134 256 134 197 101 c 1,32,33
 216 110 216 110 233 113 c 128,-1,34
 250 116 250 116 270 116 c 0,35,36
 288 116 288 116 308 112 c 128,-1,37
 328 108 328 108 347 103 c 0,38,39
 393 90 393 90 423 90 c 0,40,41
 447 90 447 90 470.5 97 c 128,-1,42
 494 104 494 104 529 119 c 1,43,-1
 544 21 l 1,44,45
 503 4 503 4 467.5 -4 c 128,-1,46
 432 -12 432 -12 392 -12 c 0,47,48
 368 -12 368 -12 348 -7.5 c 128,-1,49
 328 -3 328 -3 293 7 c 0,50,51
 262 16 262 16 242.5 20.5 c 128,-1,52
 223 25 223 25 200 25 c 0,53,54
 166 25 166 25 132.5 16.5 c 128,-1,55
 99 8 99 8 60 -11 c 1,56,-1
 35 82 l 1,57,0
 114 118 114 118 157.5 166.5 c 128,-1,1
EndSplineSet
EndChar
StartChar: currency
Encoding: 164 164 303
Width: 632
GlyphClass: 1
Flags: W
LayerCount: 2
Fore
SplineSet
90 124 m 1,0,-1
 157 190 l 1,1,2
 113 247 113 247 113 320 c 256,3,4
 113 393 113 393 157 451 c 1,5,-1
 90 517 l 1,6,-1
 136 561 l 1,7,-1
 202 495 l 1,8,9
 260 539 260 539 332 539 c 0,10,11
 403 539 403 539 461 495 c 1,12,-1
 528 561 l 1,13,-1
 573 517 l 1,14,-1
 507 451 l 1,15,16
 550 392 550 392 550 320 c 0,17,18
 550 247 550 247 507 190 c 1,19,-1
 573 124 l 1,20,-1
 528 79 l 1,21,-1
 461 145 l 1,22,23
 402 102 402 102 332 102 c 0,24,25
 261 102 261 102 202 145 c 1,26,-1
 136 79 l 1,27,-1
 90 124 l 1,0,-1
415 236.5 m 128,-1,29
 449 271 449 271 449 320 c 0,30,31
 449 370 449 370 415 404.5 c 128,-1,32
 381 439 381 439 332 439 c 256,33,34
 283 439 283 439 248.5 404.5 c 128,-1,35
 214 370 214 370 214 320 c 0,36,37
 214 271 214 271 248.5 236.5 c 128,-1,38
 283 202 283 202 332 202 c 256,39,28
 381 202 381 202 415 236.5 c 128,-1,29
EndSplineSet
EndChar
StartChar: yen
Encoding: 165 165 308
Width: 632
GlyphClass: 1
Flags: W
LayerCount: 2
Fore
SplineSet
216 80 m 1,0,-1
 78 80 l 1,1,-1
 91 144 l 1,2,-1
 230 144 l 1,3,-1
 245 217 l 1,4,-1
 107 217 l 1,5,-1
 120 281 l 1,6,-1
 246 281 l 1,7,-1
 111 668 l 1,8,-1
 258 668 l 1,9,-1
 342 386 l 1,10,-1
 346 386 l 1,11,-1
 550 668 l 1,12,-1
 699 668 l 1,13,-1
 399 281 l 1,14,-1
 526 281 l 1,15,-1
 513 217 l 1,16,-1
 373 217 l 1,17,-1
 358 144 l 1,18,-1
 497 144 l 1,19,-1
 484 80 l 1,20,-1
 344 80 l 1,21,-1
 328 0 l 1,22,-1
 199 0 l 1,23,-1
 216 80 l 1,0,-1
EndSplineSet
EndChar
StartChar: guillemotleft
Encoding: 171 171 280
Width: 632
GlyphClass: 1
Flags: W
LayerCount: 2
Fore
SplineSet
285 243 m 1,0,-1
 474 460 l 1,1,-1
 619 460 l 1,2,-1
 423 236 l 1,3,-1
 530 40 l 1,4,-1
 396 40 l 1,5,-1
 285 243 l 1,0,-1
58 250 m 1,6,-1
 247 460 l 1,7,-1
 392 460 l 1,8,-1
 196 243 l 1,9,-1
 303 40 l 1,10,-1
 170 40 l 1,11,-1
 58 250 l 1,6,-1
EndSplineSet
EndChar
StartChar: logicalnot
Encoding: 172 172 323
Width: 632
GlyphClass: 1
Flags: W
LayerCount: 2
Fore
SplineSet
472 305 m 1,0,-1
 76 305 l 1,1,-1
 98 411 l 1,2,-1
 603 411 l 1,3,-1
 531 71 l 1,4,-1
 423 71 l 1,5,-1
 472 305 l 1,0,-1
EndSplineSet
EndChar
StartChar: degree
Encoding: 176 176 295
Width: 632
GlyphClass: 1
Flags: W
LayerCount: 2
Fore
SplineSet
300.5 398 m 128,-1,1
 266 418 266 418 245.5 453 c 128,-1,2
 225 488 225 488 225 529 c 256,3,4
 225 570 225 570 245.5 604.5 c 128,-1,5
 266 639 266 639 300.5 659.5 c 128,-1,6
 335 680 335 680 376 680 c 256,7,8
 417 680 417 680 451.5 659.5 c 128,-1,9
 486 639 486 639 506 604.5 c 128,-1,10
 526 570 526 570 526 529 c 256,11,12
 526 488 526 488 506 453 c 128,-1,13
 486 418 486 418 451.5 398 c 128,-1,14
 417 378 417 378 376 378 c 256,15,0
 335 378 335 378 300.5 398 c 128,-1,1
429 476 m 128,-1,17
 451 498 451 498 451 529 c 0,18,19
 451 561 451 561 429.5 582.5 c 128,-1,20
 408 604 408 604 376 604 c 0,21,22
 345 604 345 604 322.5 582 c 128,-1,23
 300 560 300 560 300 529 c 256,24,25
 300 498 300 498 322.5 476 c 128,-1,26
 345 454 345 454 376 454 c 256,27,16
 407 454 407 454 429 476 c 128,-1,17
EndSplineSet
EndChar
StartChar: uni00B2
Encoding: 178 178 245
Width: 632
GlyphClass: 1
Flags: W
LayerCount: 2
Fore
SplineSet
352 535 m 128,-1,1
 405 573 405 573 436.5 608 c 128,-1,2
 468 643 468 643 468 675 c 0,3,4
 468 696 468 696 453.5 708.5 c 128,-1,5
 439 721 439 721 413 721 c 0,6,7
 386 721 386 721 367 706 c 128,-1,8
 348 691 348 691 340 663 c 1,9,-1
 262 689 l 1,10,11
 282 736 282 736 321 761 c 128,-1,12
 360 786 360 786 416 786 c 0,13,14
 479 786 479 786 517.5 758.5 c 128,-1,15
 556 731 556 731 556 683 c 0,16,17
 556 631 556 631 518.5 585.5 c 128,-1,18
 481 540 481 540 434.5 508.5 c 128,-1,19
 388 477 388 477 319 438 c 1,20,-1
 513 438 l 1,21,-1
 497 364 l 1,22,-1
 185 364 l 1,23,-1
 200 434 l 1,24,0
 299 497 299 497 352 535 c 128,-1,1
EndSplineSet
EndChar
StartChar: guillemotright
Encoding: 187 187 281
Width: 632
GlyphClass: 1
Flags: W
LayerCount: 2
Fore
SplineSet
436 257 m 1,0,-1
 329 460 l 1,1,-1
 463 460 l 1,2,-1
 574 250 l 1,3,-1
 385 40 l 1,4,-1
 240 40 l 1,5,-1
 436 257 l 1,0,-1
209 264 m 1,6,-1
 103 460 l 1,7,-1
 236 460 l 1,8,-1
 347 257 l 1,9,-1
 159 40 l 1,10,-1
 13 40 l 1,11,-1
 209 264 l 1,6,-1
EndSplineSet
EndChar
StartChar: onequarter
Encoding: 188 188 242
Width: 632
GlyphClass: 3
Flags: W
LayerCount: 2
Fore
SplineSet
181 562 m 1,0,-1
 112 562 l 1,1,-1
 127 632 l 1,2,3
 169 631 169 631 190 639 c 128,-1,4
 211 647 211 647 222 668 c 1,5,-1
 286 668 l 1,6,-1
 220 360 l 1,7,-1
 138 360 l 1,8,-1
 181 562 l 1,0,-1
523 668 m 1,9,-1
 627 668 l 1,10,-1
 131 0 l 1,11,-1
 27 0 l 1,12,-1
 523 668 l 1,9,-1
438 60 m 1,13,-1
 282 60 l 1,14,-1
 296 127 l 1,15,-1
 481 308 l 1,16,-1
 567 308 l 1,17,-1
 529 129 l 1,18,-1
 575 129 l 1,19,-1
 560 60 l 1,20,-1
 514 60 l 1,21,-1
 501 0 l 1,22,-1
 425 0 l 1,23,-1
 438 60 l 1,13,-1
453 129 m 1,24,-1
 471 216 l 1,25,-1
 469 216 l 1,26,-1
 383 129 l 1,27,-1
 453 129 l 1,24,-1
EndSplineSet
Ligature2: "'frac' Diagonal Fractions in Latin lookup 7 subtable" one slash four
EndChar
StartChar: threequarters
Encoding: 190 190 243
Width: 632
GlyphClass: 3
Flags: W
LayerCount: 2
Fore
SplineSet
542 668 m 1,0,-1
 646 668 l 1,1,-1
 150 0 l 1,2,-1
 46 0 l 1,3,-1
 542 668 l 1,0,-1
456 60 m 1,4,-1
 300 60 l 1,5,-1
 314 127 l 1,6,-1
 499 308 l 1,7,-1
 585 308 l 1,8,-1
 547 129 l 1,9,-1
 593 129 l 1,10,-1
 578 60 l 1,11,-1
 532 60 l 1,12,-1
 519 0 l 1,13,-1
 443 0 l 1,14,-1
 456 60 l 1,4,-1
471 129 m 1,15,-1
 489 216 l 1,16,-1
 487 216 l 1,17,-1
 401 129 l 1,18,-1
 471 129 l 1,15,-1
104.5 378.5 m 128,-1,20
 70 395 70 395 58 431 c 1,21,-1
 134 455 l 1,22,23
 141 424 141 424 182 424 c 0,24,25
 201 424 201 424 213.5 434 c 128,-1,26
 226 444 226 444 226 460 c 0,27,28
 226 491 226 491 159 490 c 1,29,-1
 173 557 l 1,30,31
 180 556 180 556 192 556 c 0,32,33
 219 556 219 556 233.5 565.5 c 128,-1,34
 248 575 248 575 248 592 c 0,35,36
 248 604 248 604 237.5 611 c 128,-1,37
 227 618 227 618 212 618 c 0,38,39
 177 618 177 618 162 591 c 1,40,-1
 91 619 l 1,41,42
 127 680 127 680 215 680 c 0,43,44
 264 680 264 680 297 658 c 128,-1,45
 330 636 330 636 330 598 c 0,46,47
 330 574 330 574 314.5 551.5 c 128,-1,48
 299 529 299 529 276 521 c 1,49,50
 291 513 291 513 300.5 497.5 c 128,-1,51
 310 482 310 482 310 464 c 0,52,53
 310 420 310 420 272 391 c 128,-1,54
 234 362 234 362 180 362 c 0,55,19
 139 362 139 362 104.5 378.5 c 128,-1,20
EndSplineSet
Ligature2: "'frac' Diagonal Fractions in Latin lookup 7 subtable" three slash four
EndChar
StartChar: questiondown
Encoding: 191 191 257
Width: 632
GlyphClass: 1
Flags: W
LayerCount: 2
Fore
SplineSet
141.5 -163.5 m 128,-1,1
 88 -145 88 -145 54 -107.5 c 128,-1,2
 20 -70 20 -70 20 -17 c 0,3,4
 20 51 20 51 63 95.5 c 128,-1,5
 106 140 106 140 189 174 c 0,6,7
 245 197 245 197 265.5 215.5 c 128,-1,8
 286 234 286 234 291 262 c 2,9,-1
 296 286 l 1,10,-1
 421 286 l 1,11,-1
 416 260 l 2,12,13
 400 194 400 194 367 157.5 c 128,-1,14
 334 121 334 121 264 92 c 0,15,16
 208 69 208 69 179 46.5 c 128,-1,17
 150 24 150 24 150 -9 c 0,18,19
 150 -40 150 -40 182 -60.5 c 128,-1,20
 214 -81 214 -81 260 -81 c 0,21,22
 307 -81 307 -81 343 -57 c 128,-1,23
 379 -33 379 -33 395 6 c 1,24,-1
 508 -34 l 1,25,26
 478 -105 478 -105 410.5 -143.5 c 128,-1,27
 343 -182 343 -182 251 -182 c 0,28,0
 195 -182 195 -182 141.5 -163.5 c 128,-1,1
328 368 m 128,-1,30
 304 392 304 392 304 427 c 0,31,32
 304 461 304 461 328 485.5 c 128,-1,33
 352 510 352 510 386 510 c 256,34,35
 420 510 420 510 445 485.5 c 128,-1,36
 470 461 470 461 470 427 c 0,37,38
 470 392 470 392 445.5 368 c 128,-1,39
 421 344 421 344 386 344 c 0,40,29
 352 344 352 344 328 368 c 128,-1,30
EndSplineSet
EndChar
StartChar: Ccedilla
Encoding: 199 199 17
Width: 632
GlyphClass: 2
Flags: W
AnchorPoint: "Anchor-1" 427 668 basechar 0
LayerCount: 2
Fore
SplineSet
182 -160 m 1,1,-1
 205 -120 l 1,2,3
 218 -128 218 -128 236 -133.5 c 128,-1,4
 254 -139 254 -139 271 -139 c 0,5,6
 289 -139 289 -139 300.5 -130.5 c 128,-1,7
 312 -122 312 -122 312 -107 c 0,8,9
 312 -95 312 -95 303 -88.5 c 128,-1,10
 294 -82 294 -82 279 -82 c 0,11,12
 265 -82 265 -82 253 -84 c 0,13,14
 243 -85 243 -85 237.5 -81 c 128,-1,15
 232 -77 232 -77 232 -70 c 0,16,17
 232 -61 232 -61 239 -53 c 2,18,-1
 274 -10 l 1,19,20
 171 2 171 2 118 75 c 128,-1,21
 65 148 65 148 65 259 c 0,22,23
 65 355 65 355 103.5 452.5 c 128,-1,24
 142 550 142 550 218.5 615 c 128,-1,25
 295 680 295 680 403 680 c 0,26,27
 485 680 485 680 543 638 c 128,-1,28
 601 596 601 596 623 520 c 1,29,-1
 519 485 l 1,30,31
 507 528 507 528 476 552.5 c 128,-1,32
 445 577 445 577 401 577 c 0,33,34
 333 577 333 577 285.5 526 c 128,-1,35
 238 475 238 475 214.5 402 c 128,-1,36
 191 329 191 329 191 266 c 0,37,38
 191 189 191 189 225 140 c 128,-1,39
 259 91 259 91 328 91 c 0,40,41
 369 91 369 91 405 113 c 128,-1,42
 441 135 441 135 469 180 c 1,43,-1
 569 138 l 1,44,45
 524 68 524 68 461 29.5 c 128,-1,46
 398 -9 398 -9 323 -12 c 1,47,-1
 294 -47 l 1,48,-1
 311 -45 l 2,49,50
 345 -45 345 -45 368.5 -61 c 128,-1,51
 392 -77 392 -77 392 -104 c 0,52,53
 392 -143 392 -143 360.5 -163.5 c 128,-1,54
 329 -184 329 -184 282 -184 c 0,55,0
 225 -184 225 -184 182 -160 c 1,1,-1
EndSplineSet
EndChar
StartChar: multiply
Encoding: 215 215 313
Width: 632
GlyphClass: 1
Flags: W
LayerCount: 2
Fore
SplineSet
66 108 m 1,0,-1
 243 254 l 1,1,-1
 126 401 l 1,2,-1
 210 469 l 1,3,-1
 325 320 l 1,4,-1
 504 469 l 1,5,-1
 568 388 l 1,6,-1
 389 242 l 1,7,-1
 505 95 l 1,8,-1
 421 28 l 1,9,-1
 307 175 l 1,10,-1
 131 28 l 1,11,-1
 66 108 l 1,0,-1
EndSplineSet
EndChar
StartChar: Oslash
Encoding: 216 216 68
Width: 632
GlyphClass: 2
Flags: W
AnchorPoint: "Anchor-3" 703 668 basechar 0
AnchorPoint: "Anchor-2" 517 10 basechar 0
AnchorPoint: "Anchor-1" 406 668 basechar 0
AnchorPoint: "Anchor-0" 264 0 basechar 0
LayerCount: 2
Fore
SplineSet
118 54 m 1,1,-1
 58 -9 l 1,2,-1
 11 33 l 1,3,-1
 80 106 l 1,4,5
 50 168 50 168 50 253 c 0,6,7
 50 353 50 353 86.5 451.5 c 128,-1,8
 123 550 123 550 197.5 615 c 128,-1,9
 272 680 272 680 378 680 c 0,10,11
 490 680 490 680 551 614 c 1,12,-1
 610 676 l 1,13,-1
 658 635 l 1,14,-1
 589 561 l 1,15,16
 618 502 618 502 618 415 c 0,17,18
 618 315 618 315 581.5 216.5 c 128,-1,19
 545 118 545 118 470.5 53 c 128,-1,20
 396 -12 396 -12 290 -12 c 0,21,0
 178 -12 178 -12 118 54 c 1,1,-1
405 144.5 m 128,-1,23
 450 198 450 198 472 273 c 128,-1,24
 494 348 494 348 494 412 c 0,25,26
 494 436 494 436 489 450 c 1,27,-1
 198 143 l 1,28,29
 231 91 231 91 296 91 c 0,30,22
 360 91 360 91 405 144.5 c 128,-1,23
372 577 m 0,32,33
 307 577 307 577 262 523.5 c 128,-1,34
 217 470 217 470 195.5 394.5 c 128,-1,35
 174 319 174 319 174 255 c 0,36,37
 174 231 174 231 179 216 c 1,38,-1
 470 525 l 1,39,31
 438 577 438 577 372 577 c 0,32,33
EndSplineSet
EndChar
StartChar: Thorn
Encoding: 222 222 72
Width: 632
GlyphClass: 2
Flags: W
AnchorPoint: "Anchor-1" 404 668 basechar 0
AnchorPoint: "Anchor-0" 262 0 basechar 0
LayerCount: 2
Fore
SplineSet
174 668 m 1,0,-1
 293 668 l 1,1,-1
 269 552 l 1,2,-1
 375 552 l 2,3,4
 483 552 483 552 547 502.5 c 128,-1,5
 611 453 611 453 611 367 c 0,6,7
 611 297 611 297 579.5 243.5 c 128,-1,8
 548 190 548 190 490 160 c 128,-1,9
 432 130 432 130 355 130 c 2,10,-1
 178 130 l 1,11,-1
 151 0 l 1,12,-1
 32 0 l 1,13,-1
 174 668 l 1,0,-1
454.5 266.5 m 128,-1,15
 488 301 488 301 488 355 c 0,16,17
 488 401 488 401 455 425 c 128,-1,18
 422 449 422 449 365 449 c 2,19,-1
 247 449 l 1,20,-1
 201 232 l 1,21,-1
 355 232 l 2,22,14
 421 232 421 232 454.5 266.5 c 128,-1,15
EndSplineSet
EndChar
StartChar: ae
Encoding: 230 230 122
Width: 632
GlyphClass: 2
Flags: W
AnchorPoint: "Anchor-1" 368 496 basechar 0
AnchorPoint: "Anchor-0" 263 0 basechar 0
LayerCount: 2
Fore
SplineSet
22.5 22 m 128,-1,1
 -12 56 -12 56 -12 111 c 0,2,3
 -12 198 -12 198 53 244.5 c 128,-1,4
 118 291 118 291 268 293 c 1,5,-1
 273 315 l 2,6,7
 278 340 278 340 278 359 c 0,8,9
 278 424 278 424 222 424 c 0,10,11
 168 424 168 424 140 355 c 1,12,-1
 61 394 l 1,13,14
 89 448 89 448 133.5 478.5 c 128,-1,15
 178 509 178 509 236 509 c 0,16,17
 326 509 326 509 351 435 c 1,18,19
 407 509 407 509 489 509 c 0,20,21
 562 509 562 509 595.5 458 c 128,-1,22
 629 407 629 407 629 325 c 0,23,24
 629 273 629 273 617 220 c 1,25,-1
 337 220 l 1,26,27
 335 198 335 198 335 189 c 0,28,29
 335 133 335 133 357.5 102.5 c 128,-1,30
 380 72 380 72 416 72 c 0,31,32
 464 72 464 72 500 124 c 1,33,-1
 578 92 l 1,34,35
 503 -12 503 -12 404 -12 c 0,36,37
 299 -12 299 -12 265 79 c 1,38,39
 239 36 239 36 201 12 c 128,-1,40
 163 -12 163 -12 115 -12 c 0,41,0
 57 -12 57 -12 22.5 22 c 128,-1,1
206.5 100 m 128,-1,43
 235 129 235 129 248 192 c 2,44,-1
 253 220 l 1,45,46
 157 218 157 218 119.5 194.5 c 128,-1,47
 82 171 82 171 82 129 c 0,48,49
 82 102 82 102 98 86.5 c 128,-1,50
 114 71 114 71 142 71 c 0,51,42
 178 71 178 71 206.5 100 c 128,-1,43
538 333 m 0,53,54
 538 372 538 372 521.5 397 c 128,-1,55
 505 422 505 422 470 422 c 0,56,57
 428 422 428 422 398 385.5 c 128,-1,58
 368 349 368 349 352 293 c 1,59,-1
 534 293 l 1,60,52
 538 319 538 319 538 333 c 0,53,54
EndSplineSet
EndChar
StartChar: ccedilla
Encoding: 231 231 127
Width: 632
GlyphClass: 2
Flags: W
AnchorPoint: "Anchor-1" 394 496 basechar 0
LayerCount: 2
Fore
SplineSet
163 -160 m 1,1,-1
 186 -120 l 1,2,3
 199 -128 199 -128 217 -133.5 c 128,-1,4
 235 -139 235 -139 252 -139 c 0,5,6
 270 -139 270 -139 282 -130.5 c 128,-1,7
 294 -122 294 -122 294 -107 c 0,8,9
 294 -95 294 -95 284.5 -88.5 c 128,-1,10
 275 -82 275 -82 260 -82 c 0,11,12
 246 -82 246 -82 234 -84 c 0,13,14
 224 -85 224 -85 218.5 -81 c 128,-1,15
 213 -77 213 -77 213 -70 c 0,16,17
 213 -61 213 -61 220 -53 c 2,18,-1
 258 -6 l 1,19,20
 174 10 174 10 127.5 66 c 128,-1,21
 81 122 81 122 81 208 c 0,22,23
 81 291 81 291 117.5 360 c 128,-1,24
 154 429 154 429 220 469 c 128,-1,25
 286 509 286 509 370 509 c 0,26,27
 443 509 443 509 502.5 477 c 128,-1,28
 562 445 562 445 586 382 c 1,29,-1
 482 346 l 1,30,31
 470 378 470 378 439 395 c 128,-1,32
 408 412 408 412 372 412 c 0,33,34
 319 412 319 412 281.5 382.5 c 128,-1,35
 244 353 244 353 226 307.5 c 128,-1,36
 208 262 208 262 208 214 c 0,37,38
 208 156 208 156 239.5 121 c 128,-1,39
 271 86 271 86 334 86 c 0,40,41
 371 86 371 86 401 99.5 c 128,-1,42
 431 113 431 113 447 140 c 1,43,-1
 550 99 l 1,44,45
 514 47 514 47 452.5 16 c 128,-1,46
 391 -15 391 -15 305 -12 c 1,47,-1
 275 -47 l 1,48,-1
 292 -45 l 2,49,50
 326 -45 326 -45 349.5 -61 c 128,-1,51
 373 -77 373 -77 373 -104 c 0,52,53
 373 -143 373 -143 341.5 -163.5 c 128,-1,54
 310 -184 310 -184 263 -184 c 0,55,0
 206 -184 206 -184 163 -160 c 1,1,-1
EndSplineSet
EndChar
StartChar: eth
Encoding: 240 240 132
Width: 632
GlyphClass: 1
Flags: W
LayerCount: 2
Fore
SplineSet
159 13.5 m 128,-1,1
 105 39 105 39 75 86 c 128,-1,2
 45 133 45 133 45 196 c 0,3,4
 45 267 45 267 79 327 c 128,-1,5
 113 387 113 387 173 422 c 128,-1,6
 233 457 233 457 306 457 c 0,7,8
 365 457 365 457 410 433.5 c 128,-1,9
 455 410 455 410 477 366 c 1,10,11
 484 410 484 410 484 434 c 0,12,13
 484 509 484 509 445 560 c 1,14,-1
 375 502 l 1,15,-1
 338 548 l 1,16,-1
 401 599 l 1,17,18
 380 616 380 616 346.5 628 c 128,-1,19
 313 640 313 640 272 642 c 1,20,-1
 291 738 l 1,21,22
 408 730 408 730 485 670 c 1,23,-1
 558 729 l 1,24,-1
 595 683 l 1,25,-1
 531 631 l 1,26,27
 599 554 599 554 599 419 c 0,28,29
 599 322 599 322 566.5 222.5 c 128,-1,30
 534 123 534 123 462.5 55.5 c 128,-1,31
 391 -12 391 -12 281 -12 c 0,32,0
 213 -12 213 -12 159 13.5 c 128,-1,1
367.5 106 m 128,-1,34
 401 129 401 129 419.5 166.5 c 128,-1,35
 438 204 438 204 438 246 c 0,36,37
 438 296 438 296 407.5 329.5 c 128,-1,38
 377 363 377 363 321 363 c 0,39,40
 275 363 275 363 241.5 339 c 128,-1,41
 208 315 208 315 190.5 277.5 c 128,-1,42
 173 240 173 240 173 199 c 0,43,44
 173 147 173 147 203 115 c 128,-1,45
 233 83 233 83 290 83 c 0,46,33
 334 83 334 83 367.5 106 c 128,-1,34
EndSplineSet
EndChar
StartChar: divide
Encoding: 247 247 314
Width: 632
GlyphClass: 1
Flags: W
LayerCount: 2
Fore
SplineSet
73 301 m 1,0,-1
 582 301 l 1,1,-1
 559 195 l 1,2,-1
 50 195 l 1,3,-1
 73 301 l 1,0,-1
227.5 20.5 m 128,-1,5
 206 42 206 42 206 73 c 0,6,7
 206 102 206 102 227.5 123.5 c 128,-1,8
 249 145 249 145 278 145 c 0,9,10
 309 145 309 145 330 124 c 128,-1,11
 351 103 351 103 351 73 c 0,12,13
 351 42 351 42 330 20.5 c 128,-1,14
 309 -1 309 -1 278 -1 c 0,15,4
 249 -1 249 -1 227.5 20.5 c 128,-1,5
302.5 372 m 128,-1,17
 281 393 281 393 281 424 c 256,18,19
 281 455 281 455 302.5 476 c 128,-1,20
 324 497 324 497 354 497 c 256,21,22
 384 497 384 497 405 476 c 128,-1,23
 426 455 426 455 426 424 c 256,24,25
 426 393 426 393 405 372 c 128,-1,26
 384 351 384 351 354 351 c 256,27,16
 324 351 324 351 302.5 372 c 128,-1,17
EndSplineSet
EndChar
StartChar: oslash
Encoding: 248 248 179
Width: 632
GlyphClass: 2
Flags: W
AnchorPoint: "Anchor-3" 640 496 basechar 0
AnchorPoint: "Anchor-2" 500 10 basechar 0
AnchorPoint: "Anchor-1" 366 496 basechar 0
AnchorPoint: "Anchor-0" 263 0 basechar 0
LayerCount: 2
Fore
SplineSet
132 40 m 1,1,-1
 66 -19 l 1,2,-1
 24 27 l 1,3,-1
 89 86 l 1,4,5
 54 140 54 140 54 210 c 0,6,7
 54 295 54 295 90.5 363 c 128,-1,8
 127 431 127 431 193 470 c 128,-1,9
 259 509 259 509 344 509 c 0,10,11
 439 509 439 509 501 458 c 1,12,-1
 565 515 l 1,13,-1
 607 469 l 1,14,-1
 543 412 l 1,15,16
 579 359 579 359 579 287 c 0,17,18
 579 202 579 202 542.5 134 c 128,-1,19
 506 66 506 66 440.5 27 c 128,-1,20
 375 -12 375 -12 290 -12 c 0,21,0
 193 -12 193 -12 132 40 c 1,1,-1
381.5 116.5 m 128,-1,23
 417 147 417 147 434.5 193.5 c 128,-1,24
 452 240 452 240 452 287 c 0,25,26
 452 307 452 307 445 321 c 1,27,-1
 214 115 l 1,28,29
 243 86 243 86 295 86 c 0,30,22
 346 86 346 86 381.5 116.5 c 128,-1,23
338 412 m 0,32,33
 287 412 287 412 251.5 381.5 c 128,-1,34
 216 351 216 351 198.5 304.5 c 128,-1,35
 181 258 181 258 181 211 c 0,36,37
 181 191 181 191 187 176 c 1,38,-1
 418 383 l 1,39,31
 387 412 387 412 338 412 c 0,32,33
EndSplineSet
EndChar
StartChar: Dcroat
Encoding: 272 272 21
Width: 632
GlyphClass: 1
Flags: W
LayerCount: 2
Fore
SplineSet
77 293 m 1,0,-1
 28 293 l 1,1,-1
 51 399 l 1,2,-1
 100 399 l 1,3,-1
 156 668 l 1,4,-1
 288 668 l 2,5,6
 447 668 447 668 532 600.5 c 128,-1,7
 617 533 617 533 617 395 c 0,8,9
 617 308 617 308 583.5 217.5 c 128,-1,10
 550 127 550 127 471 63.5 c 128,-1,11
 392 0 392 0 265 0 c 2,12,-1
 14 0 l 1,13,-1
 77 293 l 1,0,-1
398 148 m 128,-1,15
 449 191 449 191 471.5 257 c 128,-1,16
 494 323 494 323 494 395 c 0,17,18
 494 484 494 484 441 524 c 128,-1,19
 388 564 388 564 289 564 c 2,20,-1
 253 564 l 1,21,-1
 219 399 l 1,22,-1
 353 399 l 1,23,-1
 330 293 l 1,24,-1
 196 293 l 1,25,-1
 156 105 l 1,26,-1
 269 105 l 2,27,14
 347 105 347 105 398 148 c 128,-1,15
EndSplineSet
EndChar
StartChar: Eogonek
Encoding: 280 280 31
Width: 632
GlyphClass: 2
Flags: W
AnchorPoint: "Anchor-1" 287 668 basechar 0
LayerCount: 2
Fore
SplineSet
195 668 m 1,0,-1
 640 668 l 1,1,-1
 616 555 l 1,2,-1
 299 555 l 1,3,-1
 266 400 l 1,4,-1
 477 400 l 1,5,-1
 453 288 l 1,6,-1
 242 288 l 1,7,-1
 205 113 l 1,8,-1
 526 113 l 1,9,-1
 502 0 l 1,10,11
 464 -6 464 -6 429 -28.5 c 128,-1,12
 394 -51 394 -51 394 -76 c 0,13,14
 394 -107 394 -107 441 -107 c 0,15,16
 451 -107 451 -107 479 -103 c 1,17,-1
 466 -169 l 1,18,19
 449 -173 449 -173 427 -173 c 0,20,21
 371 -173 371 -173 328.5 -153 c 128,-1,22
 286 -133 286 -133 286 -95 c 0,23,24
 286 -64 286 -64 309.5 -40 c 128,-1,25
 333 -16 333 -16 369 0 c 1,26,-1
 53 0 l 1,27,-1
 195 668 l 1,0,-1
EndSplineSet
EndChar
StartChar: uni0123
Encoding: 291 291 145
Width: 632
GlyphClass: 2
Flags: W
AnchorPoint: "Anchor-1" 436 767 basechar 0
AnchorPoint: "Anchor-0" 216 -251 basechar 0
LayerCount: 2
Fore
SplineSet
122 -169.5 m 128,-1,1
 60 -141 60 -141 38 -81 c 1,2,-1
 141 -41 l 1,3,4
 155 -73 155 -73 189.5 -87.5 c 128,-1,5
 224 -102 224 -102 263 -102 c 0,6,7
 308 -102 308 -102 340.5 -79 c 128,-1,8
 373 -56 373 -56 383 -6 c 2,9,-1
 403 86 l 1,10,11
 366 51 366 51 322.5 32.5 c 128,-1,12
 279 14 279 14 233 14 c 0,13,14
 176 14 176 14 135 41.5 c 128,-1,15
 94 69 94 69 72.5 116 c 128,-1,16
 51 163 51 163 51 220 c 0,17,18
 51 297 51 297 82.5 363 c 128,-1,19
 114 429 114 429 173.5 469 c 128,-1,20
 233 509 233 509 311 509 c 0,21,22
 362 509 362 509 406.5 484.5 c 128,-1,23
 451 460 451 460 471 417 c 1,24,-1
 507 496 l 1,25,-1
 613 496 l 1,26,-1
 509 1 l 2,27,28
 487 -101 487 -101 423 -149.5 c 128,-1,29
 359 -198 359 -198 260 -198 c 0,30,0
 184 -198 184 -198 122 -169.5 c 128,-1,1
386.5 148.5 m 128,-1,32
 427 185 427 185 442 254 c 0,33,34
 447 281 447 281 447 300 c 0,35,36
 447 352 447 352 418 382 c 128,-1,37
 389 412 389 412 336 412 c 0,38,39
 284 412 284 412 248.5 385 c 128,-1,40
 213 358 213 358 196 317 c 128,-1,41
 179 276 179 276 179 232 c 0,42,43
 179 179 179 179 208 145.5 c 128,-1,44
 237 112 237 112 291 112 c 0,45,31
 346 112 346 112 386.5 148.5 c 128,-1,32
317 652 m 0,47,48
 317 691 317 691 342.5 718 c 128,-1,49
 368 745 368 745 407.5 757 c 128,-1,50
 447 769 447 769 487 766 c 1,51,-1
 523 723 l 1,52,53
 481 725 481 725 447.5 709 c 128,-1,54
 414 693 414 693 414 654 c 0,55,56
 414 637 414 637 424.5 623 c 128,-1,57
 435 609 435 609 453 600 c 1,58,-1
 372 571 l 1,59,46
 317 604 317 604 317 652 c 0,47,48
EndSplineSet
EndChar
StartChar: Iogonek
Encoding: 302 302 47
Width: 632
GlyphClass: 2
Flags: W
AnchorPoint: "Anchor-1" 405 668 basechar 0
LayerCount: 2
Fore
SplineSet
88 94 m 1,0,-1
 219 94 l 1,1,-1
 321 574 l 1,2,-1
 191 574 l 1,3,-1
 210 668 l 1,4,-1
 600 668 l 1,5,-1
 580 574 l 1,6,-1
 449 574 l 1,7,-1
 347 94 l 1,8,-1
 477 94 l 1,9,-1
 458 0 l 1,10,11
 420 -6 420 -6 385 -28.5 c 128,-1,12
 350 -51 350 -51 350 -76 c 0,13,14
 350 -107 350 -107 397 -107 c 0,15,16
 407 -107 407 -107 435 -103 c 1,17,-1
 421 -169 l 1,18,19
 405 -173 405 -173 383 -173 c 0,20,21
 327 -173 327 -173 284.5 -153 c 128,-1,22
 242 -133 242 -133 242 -95 c 0,23,24
 242 -64 242 -64 265.5 -40 c 128,-1,25
 289 -16 289 -16 325 0 c 1,26,-1
 68 0 l 1,27,-1
 88 94 l 1,0,-1
EndSplineSet
EndChar
StartChar: dotlessi
Encoding: 305 305 150
Width: 632
GlyphClass: 2
Flags: W
AnchorPoint: "Anchor-2" 516 10 basechar 0
AnchorPoint: "Anchor-1" 378 496 basechar 0
AnchorPoint: "Anchor-0" 249 0 basechar 0
LayerCount: 2
Fore
SplineSet
73 95 m 1,0,-1
 241 95 l 1,1,-1
 306 401 l 1,2,-1
 163 401 l 1,3,-1
 183 496 l 1,4,-1
 451 496 l 1,5,-1
 366 95 l 1,6,-1
 534 95 l 1,7,-1
 514 0 l 1,8,-1
 52 0 l 1,9,-1
 73 95 l 1,0,-1
EndSplineSet
EndChar
StartChar: scedilla
Encoding: 351 351 191
Width: 632
GlyphClass: 2
Flags: W
AnchorPoint: "Anchor-1" 361 496 basechar 0
LayerCount: 2
Fore
SplineSet
163 -160 m 1,1,-1
 186 -120 l 1,2,3
 198 -128 198 -128 216.5 -133.5 c 128,-1,4
 235 -139 235 -139 252 -139 c 0,5,6
 270 -139 270 -139 281.5 -130.5 c 128,-1,7
 293 -122 293 -122 293 -107 c 0,8,9
 293 -95 293 -95 283.5 -88.5 c 128,-1,10
 274 -82 274 -82 259 -82 c 2,11,-1
 228 -84 l 2,12,13
 212 -84 212 -84 212 -70 c 0,14,15
 212 -61 212 -61 219 -53 c 2,16,-1
 255 -9 l 1,17,18
 185 -1 185 -1 133 30.5 c 128,-1,19
 81 62 81 62 61 117 c 1,20,-1
 169 154 l 1,21,22
 179 116 179 116 220 98 c 128,-1,23
 261 80 261 80 308 80 c 0,24,25
 348 80 348 80 377 95 c 128,-1,26
 406 110 406 110 406 141 c 0,27,28
 406 160 406 160 387.5 173 c 128,-1,29
 369 186 369 186 328 199 c 2,30,-1
 247 224 l 2,31,32
 120 264 120 264 120 353 c 0,33,34
 120 403 120 403 150.5 438 c 128,-1,35
 181 473 181 473 230.5 491 c 128,-1,36
 280 509 280 509 337 509 c 0,37,38
 412 509 412 509 471 481.5 c 128,-1,39
 530 454 530 454 552 394 c 1,40,-1
 446 358 l 1,41,42
 436 390 436 390 402 404 c 128,-1,43
 368 418 368 418 327 418 c 0,44,45
 291 418 291 418 265.5 405 c 128,-1,46
 240 392 240 392 240 366 c 0,47,48
 240 334 240 334 301 314 c 2,49,-1
 386 288 l 2,50,51
 457 266 457 266 492 235 c 128,-1,52
 527 204 527 204 527 156 c 0,53,54
 527 106 527 106 498.5 68 c 128,-1,55
 470 30 470 30 419.5 9 c 128,-1,56
 369 -12 369 -12 304 -12 c 1,57,-1
 274 -47 l 1,58,59
 286 -45 286 -45 292 -45 c 0,60,61
 326 -45 326 -45 349.5 -61 c 128,-1,62
 373 -77 373 -77 373 -104 c 0,63,64
 373 -143 373 -143 341.5 -163.5 c 128,-1,65
 310 -184 310 -184 262 -184 c 0,66,0
 206 -184 206 -184 163 -160 c 1,1,-1
EndSplineSet
Substitution2: "'locl' Localized Forms in Latin lookup 4 subtable" uni0219
AlternateSubs2: "'aalt' Access All Alternates in Latin lookup 0 subtable" uni0219
EndChar
StartChar: uni0162
Encoding: 354 354 85
Width: 632
GlyphClass: 2
Flags: W
AnchorPoint: "Anchor-1" 405 668 basechar 0
LayerCount: 2
Fore
SplineSet
317 555 m 1,0,-1
 119 555 l 1,1,-1
 143 668 l 1,2,-1
 667 668 l 1,3,-1
 643 555 l 1,4,-1
 445 555 l 1,5,-1
 327 0 l 1,6,-1
 290 0 l 1,7,-1
 251 -47 l 1,8,9
 260 -46 260 -46 268 -45 c 0,10,11
 302 -45 302 -45 325.5 -61 c 128,-1,12
 349 -77 349 -77 349 -104 c 0,13,14
 349 -143 349 -143 317.5 -163.5 c 128,-1,15
 286 -184 286 -184 238 -184 c 0,16,17
 182 -184 182 -184 139 -160 c 1,18,-1
 162 -120 l 1,19,20
 175 -128 175 -128 193 -133.5 c 128,-1,21
 211 -139 211 -139 228 -139 c 0,22,23
 246 -139 246 -139 257.5 -130.5 c 128,-1,24
 269 -122 269 -122 269 -107 c 0,25,26
 269 -95 269 -95 259.5 -88.5 c 128,-1,27
 250 -82 250 -82 235 -82 c 0,28,29
 222 -82 222 -82 210 -84 c 0,30,31
 199 -85 199 -85 193.5 -81 c 128,-1,32
 188 -77 188 -77 188 -70 c 0,33,34
 188 -61 188 -61 195 -53 c 2,35,-1
 239 0 l 1,36,-1
 199 0 l 1,37,-1
 317 555 l 1,0,-1
EndSplineSet
Substitution2: "'locl' Localized Forms in Latin lookup 4 subtable" uni021A
AlternateSubs2: "'aalt' Access All Alternates in Latin lookup 0 subtable" uni021A
EndChar
StartChar: uni0163
Encoding: 355 355 196
Width: 632
GlyphClass: 2
Flags: W
AnchorPoint: "Anchor-3" 424 550 basechar 0
AnchorPoint: "Anchor-1" 340 496 basechar 0
LayerCount: 2
Fore
SplineSet
157 -160 m 1,1,-1
 181 -120 l 1,2,3
 193 -128 193 -128 211.5 -133.5 c 128,-1,4
 230 -139 230 -139 247 -139 c 0,5,6
 265 -139 265 -139 276.5 -130.5 c 128,-1,7
 288 -122 288 -122 288 -107 c 0,8,9
 288 -95 288 -95 278.5 -88.5 c 128,-1,10
 269 -82 269 -82 254 -82 c 2,11,-1
 223 -84 l 2,12,13
 207 -84 207 -84 207 -70 c 0,14,15
 207 -61 207 -61 214 -53 c 2,16,-1
 261 5 l 1,17,18
 217 11 217 11 197 31.5 c 128,-1,19
 177 52 177 52 177 91 c 0,20,21
 177 117 177 117 184 148 c 2,22,-1
 238 401 l 1,23,-1
 135 401 l 1,24,-1
 156 496 l 1,25,-1
 259 496 l 1,26,-1
 285 620 l 1,27,-1
 409 620 l 1,28,-1
 383 496 l 1,29,-1
 589 496 l 1,30,-1
 568 401 l 1,31,-1
 362 401 l 1,32,-1
 312 166 l 2,33,34
 308 144 308 144 308 139 c 0,35,36
 308 117 308 117 322.5 108.5 c 128,-1,37
 337 100 337 100 371 100 c 2,38,-1
 454 100 l 1,39,-1
 433 0 l 1,40,-1
 309 0 l 1,41,-1
 269 -47 l 1,42,-1
 286 -45 l 2,43,44
 320 -45 320 -45 343.5 -61 c 128,-1,45
 367 -77 367 -77 367 -104 c 0,46,47
 367 -143 367 -143 336 -163.5 c 128,-1,48
 305 -184 305 -184 257 -184 c 0,49,0
 200 -184 200 -184 157 -160 c 1,1,-1
EndSplineSet
Substitution2: "'locl' Localized Forms in Latin lookup 4 subtable" uni021B
AlternateSubs2: "'aalt' Access All Alternates in Latin lookup 0 subtable" uni021B
EndChar
StartChar: uogonek
Encoding: 371 371 205
Width: 632
GlyphClass: 2
Flags: W
AnchorPoint: "Anchor-3" 624 496 basechar 0
AnchorPoint: "Anchor-1" 363 496 basechar 0
LayerCount: 2
Fore
SplineSet
105 24.5 m 128,-1,1
 70 61 70 61 70 126 c 0,2,3
 70 155 70 155 78 193 c 2,4,-1
 142 496 l 1,5,-1
 267 496 l 1,6,-1
 207 212 l 2,7,8
 201 185 201 185 201 162 c 0,9,10
 201 86 201 86 275 86 c 0,11,12
 322 86 322 86 359.5 127 c 128,-1,13
 397 168 397 168 413 240 c 2,14,-1
 467 496 l 1,15,-1
 592 496 l 1,16,-1
 487 0 l 1,17,18
 442 -9 442 -9 410 -30 c 128,-1,19
 378 -51 378 -51 378 -76 c 0,20,21
 378 -92 378 -92 391.5 -99.5 c 128,-1,22
 405 -107 405 -107 426 -107 c 0,23,24
 446 -107 446 -107 464 -103 c 1,25,-1
 450 -169 l 1,26,27
 434 -173 434 -173 410 -173 c 0,28,29
 354 -173 354 -173 312.5 -153 c 128,-1,30
 271 -133 271 -133 271 -95 c 0,31,32
 271 -60 271 -60 302.5 -32.5 c 128,-1,33
 334 -5 334 -5 380 14 c 1,34,-1
 378 73 l 1,35,36
 310 -12 310 -12 212 -12 c 0,37,0
 140 -12 140 -12 105 24.5 c 128,-1,1
EndSplineSet
EndChar
StartChar: florin
Encoding: 402 402 286
Width: 632
GlyphClass: 1
Flags: W
LayerCount: 2
Fore
SplineSet
-14 -149 m 1,1,-1
 8 -44 l 1,2,3
 26 -52 26 -52 51.5 -56.5 c 128,-1,4
 77 -61 77 -61 94 -61 c 0,5,6
 142 -61 142 -61 167 -29 c 128,-1,7
 192 3 192 3 207 79 c 2,8,-1
 276 402 l 1,9,-1
 105 402 l 1,10,-1
 126 496 l 1,11,-1
 296 496 l 1,12,-1
 316 590 l 2,13,14
 331 663 331 663 364.5 691 c 128,-1,15
 398 719 398 719 469 719 c 2,16,-1
 658 719 l 1,17,-1
 637 620 l 1,18,-1
 484 620 l 2,19,20
 461 620 461 620 451 611.5 c 128,-1,21
 441 603 441 603 436 580 c 2,22,-1
 418 496 l 1,23,-1
 611 496 l 1,24,-1
 590 402 l 1,25,-1
 397 402 l 1,26,-1
 316 22 l 2,27,28
 294 -84 294 -84 243.5 -128 c 128,-1,29
 193 -172 193 -172 112 -172 c 0,30,0
 46 -172 46 -172 -14 -149 c 1,1,-1
EndSplineSet
EndChar
StartChar: uni0237
Encoding: 567 567 159
Width: 632
GlyphClass: 2
Flags: W
AnchorPoint: "Anchor-1" 409 496 basechar 0
AnchorPoint: "Anchor-0" 238 -251 basechar 0
LayerCount: 2
Fore
SplineSet
14 -62 m 1,0,-1
 191 -62 l 2,1,2
 220 -62 220 -62 231.5 -50.5 c 128,-1,3
 243 -39 243 -39 251 -5 c 2,4,-1
 336 401 l 1,5,-1
 193 401 l 1,6,-1
 213 496 l 1,7,-1
 482 496 l 1,8,-1
 370 -27 l 2,9,10
 354 -103 354 -103 318.5 -132.5 c 128,-1,11
 283 -162 283 -162 210 -162 c 2,12,-1
 -7 -162 l 1,13,-1
 14 -62 l 1,0,-1
EndSplineSet
EndChar
StartChar: uni030A
Encoding: 778 778 353
Width: 0
GlyphClass: 4
Flags: W
AnchorPoint: "Anchor-5" 430 786 basemark 0
AnchorPoint: "Anchor-5" 368 496 mark 0
AnchorPoint: "Anchor-1" 368 496 mark 0
LayerCount: 2
Fore
SplineSet
321 584.5 m 128,-1,1
 286 619 286 619 286 668 c 256,2,3
 286 717 286 717 321 751.5 c 128,-1,4
 356 786 356 786 405 786 c 256,5,6
 454 786 454 786 489 751.5 c 128,-1,7
 524 717 524 717 524 668 c 256,8,9
 524 619 524 619 489 584.5 c 128,-1,10
 454 550 454 550 405 550 c 256,11,0
 356 550 356 550 321 584.5 c 128,-1,1
440.5 632 m 128,-1,13
 455 647 455 647 455 668 c 256,14,15
 455 689 455 689 440.5 704 c 128,-1,16
 426 719 426 719 405 719 c 0,17,18
 385 719 385 719 370 704 c 128,-1,19
 355 689 355 689 355 668 c 256,20,21
 355 647 355 647 370 632 c 128,-1,22
 385 617 385 617 405 617 c 0,23,12
 426 617 426 617 440.5 632 c 128,-1,13
EndSplineSet
Substitution2: "Single Substitution lookup 12 subtable" uni030A.case
Substitution2: "'case' Case-Sensitive Forms in Latin lookup 9 subtable" uni030A.case
AlternateSubs2: "'aalt' Access All Alternates in Latin lookup 0 subtable" uni030A.case
EndChar
StartChar: uni030B
Encoding: 779 779 344
Width: 0
GlyphClass: 4
Flags: W
AnchorPoint: "Anchor-5" 468 718 basemark 0
AnchorPoint: "Anchor-5" 329 496 mark 0
AnchorPoint: "Anchor-1" 329 496 mark 0
LayerCount: 2
Fore
SplineSet
344 710 m 128,-1,1
 358 718 358 718 374 718 c 0,2,3
 394 718 394 718 405.5 708.5 c 128,-1,4
 417 699 417 699 417 683 c 0,5,6
 417 664 417 664 404.5 650 c 128,-1,7
 392 636 392 636 365 618 c 2,8,-1
 299 573 l 1,9,-1
 199 573 l 1,10,-1
 312 685 l 2,11,0
 330 702 330 702 344 710 c 128,-1,1
530 710 m 128,-1,13
 544 718 544 718 560 718 c 0,14,15
 580 718 580 718 592 708 c 128,-1,16
 604 698 604 698 604 683 c 0,17,18
 604 664 604 664 591 650 c 128,-1,19
 578 636 578 636 551 618 c 2,20,-1
 485 573 l 1,21,-1
 386 573 l 1,22,-1
 498 685 l 2,23,12
 516 702 516 702 530 710 c 128,-1,13
EndSplineSet
Substitution2: "Single Substitution lookup 12 subtable" uni030B.case
Substitution2: "'case' Case-Sensitive Forms in Latin lookup 9 subtable" uni030B.case
AlternateSubs2: "'aalt' Access All Alternates in Latin lookup 0 subtable" uni030B.case
EndChar
StartChar: uni030C
Encoding: 780 780 349
Width: 0
GlyphClass: 4
Flags: W
AnchorPoint: "Anchor-5" 414 707 basemark 0
AnchorPoint: "Anchor-5" 369 496 mark 0
AnchorPoint: "Anchor-1" 369 496 mark 0
LayerCount: 2
Fore
SplineSet
341 588 m 2,1,-1
 239 707 l 1,2,-1
 341 707 l 1,3,-1
 397 646 l 1,4,-1
 478 707 l 1,5,-1
 588 707 l 1,6,-1
 437 588 l 2,7,8
 410 569 410 569 384 569 c 256,9,0
 358 569 358 569 341 588 c 2,1,-1
EndSplineSet
Substitution2: "Single Substitution lookup 12 subtable" uni030C.case
Substitution2: "'case' Case-Sensitive Forms in Latin lookup 9 subtable" uni030C.case
AlternateSubs2: "'aalt' Access All Alternates in Latin lookup 0 subtable" uni030C.case
EndChar
StartChar: uni0326
Encoding: 806 806 359
Width: 0
GlyphClass: 4
Flags: W
AnchorPoint: "Anchor-4" 211 -245 basemark 0
AnchorPoint: "Anchor-4" 263 0 mark 0
AnchorPoint: "Anchor-0" 263 0 mark 0
LayerCount: 2
Fore
SplineSet
199 -186 m 128,-1,1
 233 -170 233 -170 233 -131 c 0,2,3
 233 -114 233 -114 222.5 -100 c 128,-1,4
 212 -86 212 -86 193 -77 c 1,5,-1
 274 -48 l 1,6,7
 329 -81 329 -81 329 -129 c 0,8,9
 329 -168 329 -168 303.5 -195 c 128,-1,10
 278 -222 278 -222 239 -234 c 128,-1,11
 200 -246 200 -246 160 -243 c 1,12,-1
 123 -200 l 1,13,0
 165 -202 165 -202 199 -186 c 128,-1,1
EndSplineSet
EndChar
StartChar: uni0328
Encoding: 808 808 361
Width: 0
GlyphClass: 4
Flags: W
AnchorPoint: "Anchor-2" 365 10 mark 0
LayerCount: 2
Fore
SplineSet
188.5 -153 m 128,-1,1
 147 -133 147 -133 147 -95 c 0,2,3
 147 -58 147 -58 181.5 -30 c 128,-1,4
 216 -2 216 -2 265 17 c 1,5,-1
 363 0 l 1,6,7
 319 -9 319 -9 287 -30 c 128,-1,8
 255 -51 255 -51 255 -76 c 0,9,10
 255 -92 255 -92 268.5 -99.5 c 128,-1,11
 282 -107 282 -107 303 -107 c 0,12,13
 323 -107 323 -107 341 -103 c 1,14,-1
 327 -169 l 1,15,16
 310 -173 310 -173 287 -173 c 0,17,0
 230 -173 230 -173 188.5 -153 c 128,-1,1
EndSplineSet
Substitution2: "Single Substitution lookup 12 subtable" uni0328.case
Substitution2: "'case' Case-Sensitive Forms in Latin lookup 9 subtable" uni0328.case
AlternateSubs2: "'aalt' Access All Alternates in Latin lookup 0 subtable" uni0328.case
EndChar
StartChar: uni03A9
Encoding: 937 937 226
Width: 632
GlyphClass: 1
Flags: W
LayerCount: 2
Fore
SplineSet
-2 94 m 1,0,-1
 140 94 l 1,1,-1
 150 142 l 1,2,3
 104 174 104 174 79 226.5 c 128,-1,4
 54 279 54 279 54 343 c 0,5,6
 54 433 54 433 97.5 510.5 c 128,-1,7
 141 588 141 588 216 634 c 128,-1,8
 291 680 291 680 380 680 c 0,9,10
 455 680 455 680 513 645.5 c 128,-1,11
 571 611 571 611 603 552.5 c 128,-1,12
 635 494 635 494 635 423 c 0,13,14
 635 331 635 331 584.5 254 c 128,-1,15
 534 177 534 177 434 134 c 1,16,-1
 425 94 l 1,17,-1
 567 94 l 1,18,-1
 547 0 l 1,19,-1
 300 0 l 1,20,-1
 342 201 l 1,21,22
 426 214 426 214 479.5 272 c 128,-1,23
 533 330 533 330 533 411 c 0,24,25
 533 463 533 463 511.5 502 c 128,-1,26
 490 541 490 541 452.5 562.5 c 128,-1,27
 415 584 415 584 368 584 c 0,28,29
 311 584 311 584 262.5 553 c 128,-1,30
 214 522 214 522 185.5 471.5 c 128,-1,31
 157 421 157 421 157 364 c 0,32,33
 157 305 157 305 187 260.5 c 128,-1,34
 217 216 217 216 269 201 c 1,35,-1
 226 0 l 1,36,-1
 -21 0 l 1,37,-1
 -2 94 l 1,0,-1
EndSplineSet
EndChar
StartChar: pi
Encoding: 960 960 228
Width: 632
GlyphClass: 1
Flags: W
LayerCount: 2
Fore
SplineSet
152 402 m 1,0,-1
 68 402 l 1,1,-1
 88 496 l 1,2,-1
 628 496 l 1,3,-1
 608 402 l 1,4,-1
 522 402 l 1,5,-1
 466 143 l 2,6,7
 463 130 463 130 463 119 c 0,8,9
 463 101 463 101 474.5 94.5 c 128,-1,10
 486 88 486 88 514 88 c 2,11,-1
 541 88 l 1,12,-1
 522 0 l 1,13,-1
 479 0 l 2,14,15
 408 0 408 0 379 17 c 128,-1,16
 350 34 350 34 350 78 c 0,17,18
 350 100 350 100 356 128 c 2,19,-1
 415 402 l 1,20,-1
 259 402 l 1,21,-1
 173 0 l 1,22,-1
 66 0 l 1,23,-1
 152 402 l 1,0,-1
EndSplineSet
EndChar
StartChar: emdash
Encoding: 8212 8212 266
Width: 632
GlyphClass: 1
Flags: W
LayerCount: 2
Fore
SplineSet
41 302 m 1,0,-1
 616 302 l 1,1,-1
 592 195 l 1,2,-1
 18 195 l 1,3,-1
 41 302 l 1,0,-1
EndSplineSet
EndChar
StartChar: quoteright
Encoding: 8217 8217 279
Width: 632
GlyphClass: 1
Flags: W
LayerCount: 2
Fore
SplineSet
313 537.5 m 128,-1,1
 298 561 298 561 298 588 c 0,2,3
 298 626 298 626 325 653 c 128,-1,4
 352 680 352 680 390 680 c 256,5,6
 428 680 428 680 454.5 654.5 c 128,-1,7
 481 629 481 629 481 593 c 0,8,9
 481 564 481 564 460 532 c 2,10,-1
 348 355 l 1,11,-1
 260 355 l 1,12,-1
 354 503 l 1,13,0
 328 514 328 514 313 537.5 c 128,-1,1
EndSplineSet
EndChar
StartChar: quotedblleft
Encoding: 8220 8220 276
Width: 632
GlyphClass: 1
Flags: W
LayerCount: 2
Fore
SplineSet
411 380.5 m 128,-1,1
 386 406 386 406 386 441 c 0,2,3
 386 471 386 471 405 499 c 2,4,-1
 514 668 l 1,5,-1
 601 668 l 1,6,-1
 507 525 l 1,7,8
 532 515 532 515 547.5 493 c 128,-1,9
 563 471 563 471 563 444 c 0,10,11
 563 407 563 407 537 381 c 128,-1,12
 511 355 511 355 474 355 c 0,13,0
 436 355 436 355 411 380.5 c 128,-1,1
175 380.5 m 128,-1,15
 150 406 150 406 150 441 c 0,16,17
 150 471 150 471 169 499 c 2,18,-1
 278 668 l 1,19,-1
 365 668 l 1,20,-1
 271 525 l 1,21,22
 296 515 296 515 311.5 493 c 128,-1,23
 327 471 327 471 327 444 c 0,24,25
 327 407 327 407 301 381 c 128,-1,26
 275 355 275 355 238 355 c 0,27,14
 200 355 200 355 175 380.5 c 128,-1,15
EndSplineSet
EndChar
StartChar: bullet
Encoding: 8226 8226 259
Width: 632
GlyphClass: 1
Flags: W
LayerCount: 2
Fore
SplineSet
234 110.5 m 128,-1,1
 196 133 196 133 173.5 171 c 128,-1,2
 151 209 151 209 151 254 c 256,3,4
 151 299 151 299 173.5 337 c 128,-1,5
 196 375 196 375 234 397.5 c 128,-1,6
 272 420 272 420 317 420 c 256,7,8
 362 420 362 420 400 397.5 c 128,-1,9
 438 375 438 375 460.5 337 c 128,-1,10
 483 299 483 299 483 254 c 256,11,12
 483 209 483 209 460.5 171 c 128,-1,13
 438 133 438 133 400 110.5 c 128,-1,14
 362 88 362 88 317 88 c 256,15,0
 272 88 272 88 234 110.5 c 128,-1,1
EndSplineSet
EndChar
StartChar: ellipsis
Encoding: 8230 8230 253
Width: 632
GlyphClass: 1
Flags: W
LayerCount: 2
Fore
SplineSet
18.5 11 m 128,-1,1
 -5 34 -5 34 -5 67 c 256,2,3
 -5 100 -5 100 18.5 123 c 128,-1,4
 42 146 42 146 74 146 c 0,5,6
 107 146 107 146 130 123 c 128,-1,7
 153 100 153 100 153 67 c 256,8,9
 153 34 153 34 130 11 c 128,-1,10
 107 -12 107 -12 74 -12 c 0,11,0
 42 -12 42 -12 18.5 11 c 128,-1,1
222.5 11 m 128,-1,13
 199 34 199 34 199 67 c 256,14,15
 199 100 199 100 222.5 123 c 128,-1,16
 246 146 246 146 278 146 c 0,17,18
 311 146 311 146 334 123 c 128,-1,19
 357 100 357 100 357 67 c 256,20,21
 357 34 357 34 334 11 c 128,-1,22
 311 -12 311 -12 278 -12 c 0,23,12
 246 -12 246 -12 222.5 11 c 128,-1,13
427.5 11 m 128,-1,25
 404 34 404 34 404 67 c 256,26,27
 404 100 404 100 427.5 123 c 128,-1,28
 451 146 451 146 483 146 c 0,29,30
 516 146 516 146 539 123 c 128,-1,31
 562 100 562 100 562 67 c 256,32,33
 562 34 562 34 539 11 c 128,-1,34
 516 -12 516 -12 483 -12 c 0,35,24
 451 -12 451 -12 427.5 11 c 128,-1,25
EndSplineSet
EndChar
StartChar: guilsinglleft
Encoding: 8249 8249 282
Width: 632
GlyphClass: 1
Flags: W
LayerCount: 2
Fore
SplineSet
172 250 m 1,0,-1
 361 460 l 1,1,-1
 506 460 l 1,2,-1
 310 243 l 1,3,-1
 416 40 l 1,4,-1
 283 40 l 1,5,-1
 172 250 l 1,0,-1
EndSplineSet
EndChar
StartChar: Euro
Encoding: 8364 8364 305
Width: 632
GlyphClass: 1
Flags: W
LayerCount: 2
Fore
SplineSet
172 58 m 128,-1,1
 112 128 112 128 106 235 c 1,2,-1
 13 235 l 1,3,-1
 58 299 l 1,4,-1
 108 299 l 1,5,6
 111 334 111 334 120 371 c 1,7,-1
 41 371 l 1,8,-1
 86 435 l 1,9,-1
 139 435 l 1,10,11
 178 542 178 542 255 611.5 c 128,-1,12
 332 681 332 681 439 681 c 0,13,14
 518 681 518 681 573 637.5 c 128,-1,15
 628 594 628 594 649 524 c 1,16,-1
 543 487 l 1,17,18
 531 528 531 528 500.5 551.5 c 128,-1,19
 470 575 470 575 427 575 c 0,20,21
 372 575 372 575 331 536 c 128,-1,22
 290 497 290 497 265 435 c 1,23,-1
 476 435 l 1,24,-1
 431 371 l 1,25,-1
 244 371 l 1,26,27
 235 334 235 334 232 299 c 1,28,-1
 381 299 l 1,29,-1
 337 235 l 1,30,-1
 231 235 l 1,31,32
 235 172 235 172 265.5 133 c 128,-1,33
 296 94 296 94 355 94 c 0,34,35
 442 94 442 94 488 178 c 1,36,-1
 593 135 l 1,37,38
 549 63 549 63 484 25.5 c 128,-1,39
 419 -12 419 -12 344 -12 c 0,40,0
 232 -12 232 -12 172 58 c 128,-1,1
EndSplineSet
EndChar
StartChar: uni2113
Encoding: 8467 8467 299
Width: 632
GlyphClass: 1
Flags: W
LayerCount: 2
Fore
SplineSet
203.5 23 m 128,-1,1
 165 58 165 58 165 120 c 0,2,3
 165 130 165 130 167 150 c 2,4,-1
 171 170 l 1,5,-1
 96 123 l 1,6,-1
 115 215 l 1,7,-1
 191 264 l 1,8,-1
 239 489 l 2,9,10
 260 589 260 589 308 634.5 c 128,-1,11
 356 680 356 680 424 680 c 0,12,13
 494 680 494 680 530.5 647.5 c 128,-1,14
 567 615 567 615 567 559 c 0,15,16
 567 495 567 495 530.5 440.5 c 128,-1,17
 494 386 494 386 440.5 344.5 c 128,-1,18
 387 303 387 303 312 257 c 1,19,-1
 296 180 l 2,20,21
 292 156 292 156 292 144 c 0,22,23
 292 87 292 87 349 87 c 0,24,25
 389 87 389 87 430 113 c 1,26,-1
 461 33 l 1,27,28
 435 13 435 13 396.5 0.5 c 128,-1,29
 358 -12 358 -12 318 -12 c 0,30,0
 242 -12 242 -12 203.5 23 c 128,-1,1
426 443 m 128,-1,32
 464 495 464 495 464 546 c 0,33,34
 464 568 464 568 453.5 579.5 c 128,-1,35
 443 591 443 591 425 591 c 0,36,37
 382 591 382 591 366 511 c 2,38,-1
 332 354 l 1,39,31
 388 391 388 391 426 443 c 128,-1,32
EndSplineSet
EndChar
StartChar: estimated
Encoding: 8494 8494 301
Width: 632
GlyphClass: 1
Flags: W
LayerCount: 2
Fore
SplineSet
195 21.5 m 128,-1,1
 135 55 135 55 98.5 115.5 c 128,-1,2
 62 176 62 176 62 252 c 0,3,4
 62 318 62 318 96 377 c 128,-1,5
 130 436 130 436 190 471.5 c 128,-1,6
 250 507 250 507 323 507 c 0,7,8
 393 507 393 507 452 472 c 128,-1,9
 511 437 511 437 546.5 377.5 c 128,-1,10
 582 318 582 318 582 248 c 1,11,-1
 186 248 l 1,12,-1
 186 93 l 1,13,14
 213 68 213 68 248.5 54.5 c 128,-1,15
 284 41 284 41 323 41 c 0,16,17
 369 41 369 41 410 61 c 128,-1,18
 451 81 451 81 479 115 c 1,19,-1
 532 96 l 1,20,21
 496 46 496 46 441 17 c 128,-1,22
 386 -12 386 -12 323 -12 c 0,23,0
 255 -12 255 -12 195 21.5 c 128,-1,1
458 299 m 1,24,-1
 458 402 l 1,25,26
 431 427 431 427 396 440.5 c 128,-1,27
 361 454 361 454 323 454 c 0,28,29
 284 454 284 454 248.5 440.5 c 128,-1,30
 213 427 213 427 186 402 c 1,31,-1
 186 299 l 1,32,-1
 458 299 l 1,24,-1
EndSplineSet
EndChar
StartChar: product
Encoding: 8719 8719 328
Width: 632
GlyphClass: 1
Flags: W
LayerCount: 2
Fore
SplineSet
165 668 m 1,0,-1
 645 668 l 1,1,-1
 469 -162 l 1,2,-1
 361 -162 l 1,3,-1
 516 567 l 1,4,-1
 251 567 l 1,5,-1
 96 -162 l 1,6,-1
 -11 -162 l 1,7,-1
 165 668 l 1,0,-1
EndSplineSet
EndChar
StartChar: summation
Encoding: 8721 8721 329
Width: 632
GlyphClass: 1
Flags: W
LayerCount: 2
Fore
SplineSet
-3 -54 m 1,0,-1
 306 264 l 1,1,-1
 127 560 l 1,2,-1
 150 668 l 1,3,-1
 661 668 l 1,4,-1
 638 560 l 1,5,-1
 256 560 l 1,6,-1
 443 254 l 1,7,-1
 145 -54 l 1,8,-1
 508 -54 l 1,9,-1
 485 -162 l 1,10,-1
 -26 -162 l 1,11,-1
 -3 -54 l 1,0,-1
EndSplineSet
EndChar
StartChar: minus
Encoding: 8722 8722 312
Width: 632
GlyphClass: 1
Flags: W
LayerCount: 2
Fore
SplineSet
74 302 m 1,0,-1
 581 302 l 1,1,-1
 558 196 l 1,2,-1
 51 196 l 1,3,-1
 74 302 l 1,0,-1
EndSplineSet
EndChar
StartChar: radical
Encoding: 8730 8730 330
Width: 632
GlyphClass: 1
Flags: W
LayerCount: 2
Fore
SplineSet
117 116 m 1,0,-1
 3 116 l 1,1,-1
 26 225 l 1,2,-1
 211 225 l 1,3,-1
 257 -11 l 1,4,-1
 580 668 l 1,5,-1
 704 668 l 1,6,-1
 308 -162 l 1,7,-1
 177 -162 l 1,8,-1
 117 116 l 1,0,-1
EndSplineSet
EndChar
StartChar: infinity
Encoding: 8734 8734 326
Width: 632
GlyphClass: 1
Flags: W
LayerCount: 2
Fore
SplineSet
52.5 136 m 128,-1,1
 13 171 13 171 13 233 c 0,2,3
 13 280 13 280 34.5 321 c 128,-1,4
 56 362 56 362 94.5 386.5 c 128,-1,5
 133 411 133 411 183 411 c 0,6,7
 225 411 225 411 257 391.5 c 128,-1,8
 289 372 289 372 325 333 c 1,9,10
 373 373 373 373 406.5 392 c 128,-1,11
 440 411 440 411 482 411 c 0,12,13
 543 411 543 411 582.5 376 c 128,-1,14
 622 341 622 341 622 279 c 0,15,16
 622 232 622 232 600.5 191 c 128,-1,17
 579 150 579 150 540.5 125.5 c 128,-1,18
 502 101 502 101 452 101 c 0,19,20
 410 101 410 101 377.5 121 c 128,-1,21
 345 141 345 141 310 179 c 1,22,23
 261 138 261 138 227.5 119.5 c 128,-1,24
 194 101 194 101 153 101 c 0,25,0
 92 101 92 101 52.5 136 c 128,-1,1
209.5 205 m 128,-1,27
 232 219 232 219 265 252 c 1,28,29
 242 288 242 288 225 304.5 c 128,-1,30
 208 321 208 321 178 321 c 0,31,32
 147 321 147 321 127.5 298 c 128,-1,33
 108 275 108 275 108 246 c 0,34,35
 108 222 108 222 122.5 206.5 c 128,-1,36
 137 191 137 191 163 191 c 0,37,26
 187 191 187 191 209.5 205 c 128,-1,27
507 214 m 128,-1,39
 527 237 527 237 527 266 c 0,40,41
 527 290 527 290 512.5 305.5 c 128,-1,42
 498 321 498 321 472 321 c 0,43,44
 447 321 447 321 425.5 307.5 c 128,-1,45
 404 294 404 294 370 260 c 1,46,47
 393 224 393 224 410 207.5 c 128,-1,48
 427 191 427 191 456 191 c 0,49,38
 487 191 487 191 507 214 c 128,-1,39
EndSplineSet
EndChar
StartChar: .notdef
Encoding: 65536 -1 0
Width: 632
GlyphClass: 1
Flags: W
LayerCount: 2
Fore
SplineSet
198 700 m 1,0,-1
 625 700 l 1,1,-1
 477 0 l 1,2,-1
 50 0 l 1,3,-1
 198 700 l 1,0,-1
453 21 m 1,4,-1
 334 329 l 1,5,-1
 83 21 l 1,6,-1
 453 21 l 1,4,-1
325 350 m 1,7,-1
 209 650 l 1,8,-1
 81 49 l 1,9,-1
 325 350 l 1,7,-1
595 652 m 1,10,-1
 350 350 l 1,11,-1
 467 47 l 1,12,-1
 595 652 l 1,10,-1
593 680 m 1,13,-1
 222 680 l 1,14,-1
 341 371 l 1,15,-1
 593 680 l 1,13,-1
EndSplineSet
EndChar
StartChar: gravecomb.case
Encoding: 65543 -1 341
Width: 0
GlyphClass: 4
Flags: W
AnchorPoint: "Anchor-5" 499 874 basemark 0
AnchorPoint: "Anchor-5" 455 668 mark 0
AnchorPoint: "Anchor-1" 455 668 mark 0
LayerCount: 2
Fore
SplineSet
338 816 m 0,1,2
 338 837 338 837 353.5 853 c 128,-1,3
 369 869 369 869 390 869 c 256,4,5
 411 869 411 869 435 836 c 2,6,-1
 510 733 l 1,7,-1
 417 733 l 1,8,-1
 367 772 l 2,9,0
 338 794 338 794 338 816 c 0,1,2
EndSplineSet
EndChar
